<?xml version="1.0" encoding="UTF-8" standalone="no"?>
<!-- Created with Inkscape (http://www.inkscape.org/) -->

<svg
   xmlns:dc="http://purl.org/dc/elements/1.1/"
   xmlns:cc="http://creativecommons.org/ns#"
   xmlns:rdf="http://www.w3.org/1999/02/22-rdf-syntax-ns#"
   xmlns:svg="http://www.w3.org/2000/svg"
   xmlns="http://www.w3.org/2000/svg"
   xmlns:xlink="http://www.w3.org/1999/xlink"
   xmlns:sodipodi="http://sodipodi.sourceforge.net/DTD/sodipodi-0.dtd"
   xmlns:inkscape="http://www.inkscape.org/namespaces/inkscape"
   width="210mm"
   height="297mm"
   viewBox="0 0 210 297"
   version="1.1"
   id="svg7084"
   inkscape:version="0.92.3 (2405546, 2018-03-11)"
   sodipodi:docname="Yum-chan_Vol-01_06.svg">
  <defs
     id="defs7078">
    <radialGradient
       inkscape:collect="always"
       xlink:href="#linearGradient3247-6"
       id="radialGradient5994"
       gradientUnits="userSpaceOnUse"
       gradientTransform="matrix(1.619044,1.0253054e-6,-9.4532885e-7,1.4927543,-1505.0077,707.2831)"
       cx="404.84314"
       cy="320.71384"
       fx="404.84314"
       fy="320.71384"
       r="9.0904226" />
    <linearGradient
       inkscape:collect="always"
       id="linearGradient3247-6">
      <stop
         style="stop-color:#d35f5f;stop-opacity:1;"
         offset="0"
         id="stop3243" />
      <stop
         style="stop-color:#d35f5f;stop-opacity:0;"
         offset="1"
         id="stop3245" />
    </linearGradient>
    <filter
       inkscape:collect="always"
       style="color-interpolation-filters:sRGB"
       id="filter3789-6-7"
       x="-0.012"
       width="1.024"
       y="-0.012"
       height="1.024">
      <feGaussianBlur
         inkscape:collect="always"
         stdDeviation="0.18161852"
         id="feGaussianBlur3791-6-3" />
    </filter>
    <radialGradient
       inkscape:collect="always"
       xlink:href="#linearGradient3247-6"
       id="radialGradient5996"
       gradientUnits="userSpaceOnUse"
       gradientTransform="matrix(1.619044,1.0253054e-6,-9.4532885e-7,1.4927543,-1567.3737,707.2831)"
       cx="404.84314"
       cy="320.71384"
       fx="404.84314"
       fy="320.71384"
       r="9.0904226" />
    <linearGradient
       inkscape:collect="always"
       xlink:href="#linearGradient5926"
       id="linearGradient5998"
       gradientUnits="userSpaceOnUse"
       x1="-880.61658"
       y1="1001.1299"
       x2="-880.61658"
       y2="991.81677"
       gradientTransform="translate(0,205.61907)" />
    <linearGradient
       inkscape:collect="always"
       id="linearGradient5926">
      <stop
         style="stop-color:#ff2a2a;stop-opacity:1;"
         offset="0"
         id="stop5922" />
      <stop
         style="stop-color:#ff2a2a;stop-opacity:0;"
         offset="1"
         id="stop5924" />
    </linearGradient>
    <filter
       inkscape:collect="always"
       style="color-interpolation-filters:sRGB"
       id="filter4165-4-7"
       x="-0.018703243"
       width="1.0374064"
       y="-0.033482142"
       height="1.0669643">
      <feGaussianBlur
         inkscape:collect="always"
         stdDeviation="0.21253296"
         id="feGaussianBlur4167-9-59" />
    </filter>
  </defs>
  <sodipodi:namedview
     id="base"
     pagecolor="#ffffff"
     bordercolor="#666666"
     borderopacity="1.0"
     inkscape:pageopacity="0.0"
     inkscape:pageshadow="2"
     inkscape:zoom="0.35"
     inkscape:cx="-261.42857"
     inkscape:cy="560"
     inkscape:document-units="mm"
     inkscape:current-layer="layer1"
     showgrid="false"
     inkscape:window-width="1366"
     inkscape:window-height="712"
     inkscape:window-x="0"
     inkscape:window-y="0"
     inkscape:window-maximized="1" />
  <metadata
     id="metadata7081">
    <rdf:RDF>
      <cc:Work
         rdf:about="">
        <dc:format>image/svg+xml</dc:format>
        <dc:type
           rdf:resource="http://purl.org/dc/dcmitype/StillImage" />
        <dc:title></dc:title>
      </cc:Work>
    </rdf:RDF>
  </metadata>
  <g
     inkscape:label="Layer 1"
     inkscape:groupmode="layer"
     id="layer1">
    <g
       id="g6105"
       transform="translate(985.73202,-1027.315)"
       inkscape:export-filename="/home/dito/Pictures/DitoKP's Sticker Packs/Yum-chan_-_The_Kawaii_Bread/Yum-Chan_-_The_Kawaii_Bread_Stickers_Source/Yum-chan_Telegram/Yum-chan_Vol-01_06.png"
       inkscape:export-xdpi="164"
       inkscape:export-ydpi="164">
      <path
         style="opacity:1;fill:#ffffff;fill-opacity:1;stroke:none;stroke-width:0.22821258;stroke-linecap:round;stroke-linejoin:round;stroke-miterlimit:4;stroke-dasharray:none;stroke-dashoffset:0"
         d="m -924.23349,1089.1965 c -24.761,0 -44.69495,19.934 -44.69495,44.695 0,14.3618 6.70692,27.0988 17.17157,35.265 v 68.8108 c 0,13.5544 10.91236,24.4662 24.4667,24.4662 h 93.1163 c 13.55434,0 24.46671,-10.9119 24.46671,-24.4662 v -68.8108 c 10.46464,-8.1662 17.17156,-20.9032 17.17156,-35.265 0,-24.761 -19.93395,-44.695 -44.69493,-44.695 z"
         id="path5952"
         inkscape:connector-curvature="0" />
      <path
         id="path5954"
         d="m -928.10955,1112.1017 c -14.72792,0 -26.58442,11.8571 -26.58442,26.585 0,10.7674 6.33793,19.9986 15.50138,24.1856 v 65.3495 c 0,11.8454 9.53625,21.3817 21.38164,21.3817 h 73.23171 c 11.84538,0 21.38164,-9.5363 21.38164,-21.3817 v -65.3495 c 9.16349,-4.187 15.50189,-13.4182 15.50189,-24.1856 0,-14.7279 -11.85702,-26.585 -26.58494,-26.585 z"
         style="opacity:1;fill:#ac7d35;fill-opacity:1;stroke:none;stroke-width:2;stroke-linecap:round;stroke-linejoin:round;stroke-miterlimit:4;stroke-dasharray:none;stroke-dashoffset:0"
         inkscape:connector-curvature="0" />
      <path
         inkscape:connector-curvature="0"
         style="opacity:1;fill:#daae64;fill-opacity:1;stroke:#000000;stroke-width:1;stroke-linecap:round;stroke-linejoin:round;stroke-miterlimit:4;stroke-dasharray:none;stroke-dashoffset:0;stroke-opacity:1"
         d="m -928.10955,1102.0476 c -14.72792,0 -26.58442,11.857 -26.58442,26.5849 0,10.7674 6.33793,19.9986 15.50138,24.1856 v 65.3495 c 0,11.8454 9.53625,21.3817 21.38164,21.3817 h 73.23171 c 11.84538,0 21.38164,-9.5363 21.38164,-21.3817 v -65.3495 c 9.16349,-4.1869 15.50189,-13.4181 15.50189,-24.1856 0,-14.7279 -11.85702,-26.5849 -26.58494,-26.5849 z"
         id="path5956" />
      <path
         inkscape:connector-curvature="0"
         style="opacity:1;fill:#efd89f;fill-opacity:1;stroke:none;stroke-width:1;stroke-linecap:round;stroke-linejoin:round;stroke-miterlimit:4;stroke-dasharray:none;stroke-dashoffset:0"
         d="m -919.91315,1112.2475 c -10.17246,0 -18.36167,8.1892 -18.36167,18.3616 0,7.9871 5.04977,14.75 12.14293,17.2879 v 62.1647 c 0,10.4291 8.39611,18.8247 18.82521,18.8247 h 53.14973 c 10.42909,0 18.82469,-8.3956 18.82469,-18.8247 v -62.1647 c 7.09337,-2.5378 12.14292,-9.3006 12.14292,-17.2879 0,-10.1724 -8.18921,-18.3616 -18.36167,-18.3616 z"
         id="path5958" />
      <path
         style="fill:none;stroke:#000000;stroke-width:3.10443163;stroke-linecap:butt;stroke-linejoin:miter;stroke-miterlimit:4;stroke-dasharray:none;stroke-opacity:1"
         d="m -941.00675,1162.6334 0.33409,60.5819 c 0.31787,15.177 4.19925,29.0442 32.63736,27.7216 l 64.19808,-0.4009 c 17.34948,-1.1376 21.64306,-12.0242 22.33215,-38.1878 l 0.03,-49.9706 c 27.8007,-26.2197 9.31954,-54.6062 0.30068,-58.5271 -5.77186,-2.8938 -12.85266,-2.4496 -18.9471,-2.3468 h -88.00509 c -6.08301,0.084 -8.67748,-0.4223 -13.08067,2.3468 -24.42126,16.5505 -14.94879,45.2255 0.20045,58.7829 z"
         id="path5960"
         inkscape:connector-curvature="0"
         sodipodi:nodetypes="ccccccccccc" />
      <circle
         style="opacity:0.71199999;fill:url(#radialGradient5994);fill-opacity:1;stroke:none;stroke-width:0.27710074;stroke-linecap:round;stroke-linejoin:round;stroke-miterlimit:4;stroke-dasharray:none;stroke-dashoffset:0;filter:url(#filter3789-6-7)"
         id="circle5962"
         cx="-849.54907"
         cy="1186.0304"
         r="18.161852" />
      <circle
         r="18.161852"
         cy="1186.0304"
         cx="-911.9151"
         id="circle5964"
         style="opacity:0.71199999;fill:url(#radialGradient5996);fill-opacity:1;stroke:none;stroke-width:0.27710074;stroke-linecap:round;stroke-linejoin:round;stroke-miterlimit:4;stroke-dasharray:none;stroke-dashoffset:0;filter:url(#filter3789-6-7)" />
      <path
         id="path5972"
         style="opacity:1;fill:#000000;fill-opacity:1;stroke:none;stroke-width:0.45633692;stroke-linecap:round;stroke-linejoin:round;stroke-miterlimit:4;stroke-dasharray:none;stroke-dashoffset:0"
         sodipodi:type="arc"
         sodipodi:cx="-880.73206"
         sodipodi:cy="1193.1843"
         sodipodi:rx="14.970354"
         sodipodi:ry="14.970354"
         sodipodi:start="0"
         sodipodi:end="3.1415927"
         d="m -865.7617,1193.1843 a 14.970354,14.970354 0 0 1 -7.48518,12.9647 14.970354,14.970354 0 0 1 -14.97035,0 14.970354,14.970354 0 0 1 -7.48518,-12.9647 l 14.97035,0 z" />
      <path
         style="opacity:1;fill:url(#linearGradient5998);fill-opacity:1;stroke:none;stroke-width:0.27890262;stroke-linecap:round;stroke-linejoin:round;stroke-miterlimit:4;stroke-dasharray:none;stroke-dashoffset:0"
         d="m -885.12943,1195.5369 c -2.07454,0 -3.74499,1.67 -3.74499,3.7445 v 14.979 c 0,0.8262 0.26848,1.5855 0.71832,2.2035 a 14.970354,14.970354 0 0 0 -0.0171,0.01 9.149536,9.149536 0 0 0 2.8665,2.6154 9.149536,9.149536 0 0 0 4.79041,1.2237 v 0 a 9.149536,9.149536 0 0 0 4.35891,-1.2237 9.149536,9.149536 0 0 0 2.867,-2.6138 14.970354,14.970354 0 0 0 -0.0233,-0.012 c 0.4482,-0.6173 0.71519,-1.3753 0.71519,-2.1998 v -14.979 c 0,-2.0745 -1.66991,-3.7445 -3.74446,-3.7445 z"
         id="path5974"
         inkscape:connector-curvature="0" />
      <g
         style="fill:#dc713e;fill-opacity:1;stroke:#ff5555;stroke-opacity:1;filter:url(#filter4165-4-7)"
         transform="matrix(0.48905025,0,0,0.48905025,-1012.8192,1161.8837)"
         id="g5982">
        <path
           style="fill:#dc713e;fill-opacity:1;stroke:#ff5555;stroke-width:2;stroke-linecap:round;stroke-linejoin:round;stroke-miterlimit:4;stroke-dasharray:none;stroke-opacity:1"
           d="M 192.69059,56.457425 207.39041,41.757601"
           id="path5976"
           inkscape:connector-curvature="0" />
        <path
           inkscape:connector-curvature="0"
           id="path5978"
           d="M 198.84853,56.991964 213.54835,42.29214"
           style="fill:#dc713e;fill-opacity:1;stroke:#ff5555;stroke-width:2;stroke-linecap:round;stroke-linejoin:round;stroke-miterlimit:4;stroke-dasharray:none;stroke-opacity:1" />
        <path
           style="fill:#dc713e;fill-opacity:1;stroke:#ff5555;stroke-width:2;stroke-linecap:round;stroke-linejoin:round;stroke-miterlimit:4;stroke-dasharray:none;stroke-opacity:1"
           d="M 205.263,56.991964 219.96282,42.29214"
           id="path5980"
           inkscape:connector-curvature="0" />
      </g>
      <g
         id="g5990"
         transform="matrix(0.48905025,0,0,0.48905025,-950.45319,1161.8837)"
         style="fill:#dc713e;fill-opacity:1;stroke:#ff5555;stroke-opacity:1;filter:url(#filter4165-4-7)">
        <path
           inkscape:connector-curvature="0"
           id="path5984"
           d="M 192.69059,56.457425 207.39041,41.757601"
           style="fill:#dc713e;fill-opacity:1;stroke:#ff5555;stroke-width:2;stroke-linecap:round;stroke-linejoin:round;stroke-miterlimit:4;stroke-dasharray:none;stroke-opacity:1" />
        <path
           style="fill:#dc713e;fill-opacity:1;stroke:#ff5555;stroke-width:2;stroke-linecap:round;stroke-linejoin:round;stroke-miterlimit:4;stroke-dasharray:none;stroke-opacity:1"
           d="M 198.84853,56.991964 213.54835,42.29214"
           id="path5986"
           inkscape:connector-curvature="0" />
        <path
           inkscape:connector-curvature="0"
           id="path5988"
           d="M 205.263,56.991964 219.96282,42.29214"
           style="fill:#dc713e;fill-opacity:1;stroke:#ff5555;stroke-width:2;stroke-linecap:round;stroke-linejoin:round;stroke-miterlimit:4;stroke-dasharray:none;stroke-opacity:1" />
      </g>
      <g
         transform="translate(-213.80575,833.90495)"
         id="g6036">
        <path
           inkscape:connector-curvature="0"
           id="path6028"
           d="m -633.0501,328.24549 2.78319,0.77686 -24.74317,6.90626 24.74317,6.90628 -2.78319,0.77686 -27.52635,-7.68314 z"
           style="opacity:1;fill:#000000;fill-opacity:1;stroke:none;stroke-width:0.74951255;stroke-linecap:round;stroke-linejoin:round;stroke-miterlimit:4;stroke-dasharray:none;stroke-dashoffset:0;stroke-opacity:1;paint-order:stroke fill markers" />
        <g
           transform="translate(2.4450756,1.0587853)"
           id="g6034">
          <circle
             style="opacity:0.93000034;fill:#000000;fill-opacity:1;stroke:none;stroke-width:0.23043478;stroke-linecap:round;stroke-linejoin:round;stroke-miterlimit:4;stroke-dasharray:none;stroke-dashoffset:0"
             id="circle6030"
             cx="-690.53381"
             cy="334.34067"
             r="7.5595241" />
          <circle
             r="3.4017859"
             cy="330.18295"
             cx="-689.55109"
             id="circle6032"
             style="opacity:1;fill:#ffffff;fill-opacity:1;stroke:none;stroke-width:0.10369566;stroke-linecap:round;stroke-linejoin:round;stroke-miterlimit:4;stroke-dasharray:none;stroke-dashoffset:0" />
        </g>
      </g>
    </g>
  </g>
</svg>
