<?xml version="1.0" encoding="UTF-8" standalone="no"?>
<!-- Created with Inkscape (http://www.inkscape.org/) -->

<svg
   xmlns:dc="http://purl.org/dc/elements/1.1/"
   xmlns:cc="http://creativecommons.org/ns#"
   xmlns:rdf="http://www.w3.org/1999/02/22-rdf-syntax-ns#"
   xmlns:svg="http://www.w3.org/2000/svg"
   xmlns="http://www.w3.org/2000/svg"
   xmlns:xlink="http://www.w3.org/1999/xlink"
   xmlns:sodipodi="http://sodipodi.sourceforge.net/DTD/sodipodi-0.dtd"
   xmlns:inkscape="http://www.inkscape.org/namespaces/inkscape"
   width="210mm"
   height="297mm"
   viewBox="0 0 210 297"
   version="1.1"
   id="svg14062"
   inkscape:version="0.92.3 (2405546, 2018-03-11)"
   sodipodi:docname="Yum-chan_Vol-01_15.svg">
  <defs
     id="defs14056">
    <radialGradient
       inkscape:collect="always"
       xlink:href="#linearGradient3247-6"
       id="radialGradient5659"
       gradientUnits="userSpaceOnUse"
       gradientTransform="matrix(1.619044,1.0253054e-6,-9.4532885e-7,1.4927543,-3331.3222,849.89519)"
       cx="404.84314"
       cy="320.71384"
       fx="404.84314"
       fy="320.71384"
       r="9.0904226" />
    <linearGradient
       inkscape:collect="always"
       id="linearGradient3247-6">
      <stop
         style="stop-color:#d35f5f;stop-opacity:1;"
         offset="0"
         id="stop3243" />
      <stop
         style="stop-color:#d35f5f;stop-opacity:0;"
         offset="1"
         id="stop3245" />
    </linearGradient>
    <filter
       inkscape:collect="always"
       style="color-interpolation-filters:sRGB"
       id="filter3789-6-7"
       x="-0.012"
       width="1.024"
       y="-0.012"
       height="1.024">
      <feGaussianBlur
         inkscape:collect="always"
         stdDeviation="0.18161852"
         id="feGaussianBlur3791-6-3" />
    </filter>
    <radialGradient
       inkscape:collect="always"
       xlink:href="#linearGradient3247-6"
       id="radialGradient5661"
       gradientUnits="userSpaceOnUse"
       gradientTransform="matrix(1.619044,1.0253054e-6,-9.4532885e-7,1.4927543,-3393.6883,849.89519)"
       cx="404.84314"
       cy="320.71384"
       fx="404.84314"
       fy="320.71384"
       r="9.0904226" />
    <filter
       inkscape:collect="always"
       style="color-interpolation-filters:sRGB"
       id="filter4165-4-36"
       x="-0.018703243"
       width="1.0374064"
       y="-0.033482142"
       height="1.0669643">
      <feGaussianBlur
         inkscape:collect="always"
         stdDeviation="0.21253296"
         id="feGaussianBlur4167-9-1" />
    </filter>
  </defs>
  <sodipodi:namedview
     id="base"
     pagecolor="#ffffff"
     bordercolor="#666666"
     borderopacity="1.0"
     inkscape:pageopacity="0.0"
     inkscape:pageshadow="2"
     inkscape:zoom="0.35"
     inkscape:cx="-261.42857"
     inkscape:cy="560"
     inkscape:document-units="mm"
     inkscape:current-layer="layer1"
     showgrid="false"
     inkscape:window-width="1366"
     inkscape:window-height="712"
     inkscape:window-x="0"
     inkscape:window-y="0"
     inkscape:window-maximized="1" />
  <metadata
     id="metadata14059">
    <rdf:RDF>
      <cc:Work
         rdf:about="">
        <dc:format>image/svg+xml</dc:format>
        <dc:type
           rdf:resource="http://purl.org/dc/dcmitype/StillImage" />
        <dc:title></dc:title>
      </cc:Work>
    </rdf:RDF>
  </metadata>
  <g
     inkscape:label="Layer 1"
     inkscape:groupmode="layer"
     id="layer1">
    <g
       id="g12315"
       transform="translate(2812.0466,-1167.1707)"
       inkscape:export-filename="/home/dito/Pictures/DitoKP's Sticker Packs/Yum-chan_-_The_Kawaii_Bread/Yum-Chan_-_The_Kawaii_Bread_Stickers_Source/Yum-chan_Telegram/Yum-chan_Vol-01_15.png"
       inkscape:export-xdpi="164"
       inkscape:export-ydpi="164">
      <path
         inkscape:connector-curvature="0"
         id="path5615"
         d="m -2750.5481,1231.8086 c -24.761,0 -44.6949,19.934 -44.6949,44.695 0,14.3618 6.7069,27.0988 17.1716,35.265 v 68.8108 c 0,13.5543 10.9123,24.4662 24.4667,24.4662 h 93.1163 c 13.5543,0 24.4667,-10.9119 24.4667,-24.4662 v -68.8108 c 10.4646,-8.1662 17.1715,-20.9032 17.1715,-35.265 0,-24.761 -19.9339,-44.695 -44.6949,-44.695 z"
         style="opacity:1;fill:#ffffff;fill-opacity:1;stroke:none;stroke-width:0.22821258;stroke-linecap:round;stroke-linejoin:round;stroke-miterlimit:4;stroke-dasharray:none;stroke-dashoffset:0" />
      <path
         inkscape:connector-curvature="0"
         style="opacity:1;fill:#ac7d35;fill-opacity:1;stroke:none;stroke-width:2;stroke-linecap:round;stroke-linejoin:round;stroke-miterlimit:4;stroke-dasharray:none;stroke-dashoffset:0"
         d="m -2754.4241,1254.7138 c -14.7279,0 -26.5844,11.8571 -26.5844,26.585 0,10.7674 6.3379,19.9986 15.5013,24.1856 v 65.3495 c 0,11.8454 9.5363,21.3816 21.3817,21.3816 h 73.2317 c 11.8454,0 21.3816,-9.5362 21.3816,-21.3816 v -65.3495 c 9.1635,-4.187 15.5019,-13.4182 15.5019,-24.1856 0,-14.7279 -11.857,-26.585 -26.5849,-26.585 z"
         id="path5617" />
      <path
         id="path5619"
         d="m -2754.4241,1244.6597 c -14.7279,0 -26.5844,11.857 -26.5844,26.5849 0,10.7674 6.3379,19.9986 15.5013,24.1856 v 65.3495 c 0,11.8454 9.5363,21.3817 21.3817,21.3817 h 73.2317 c 11.8454,0 21.3816,-9.5363 21.3816,-21.3817 v -65.3495 c 9.1635,-4.187 15.5019,-13.4181 15.5019,-24.1856 0,-14.7279 -11.857,-26.5849 -26.5849,-26.5849 z"
         style="opacity:1;fill:#daae64;fill-opacity:1;stroke:#000000;stroke-width:1;stroke-linecap:round;stroke-linejoin:round;stroke-miterlimit:4;stroke-dasharray:none;stroke-dashoffset:0;stroke-opacity:1"
         inkscape:connector-curvature="0" />
      <path
         id="path5621"
         d="m -2746.2277,1254.8596 c -10.1725,0 -18.3617,8.1892 -18.3617,18.3616 0,7.9871 5.0498,14.75 12.1429,17.2879 v 62.1646 c 0,10.4291 8.3961,18.8247 18.8252,18.8247 h 53.1498 c 10.4291,0 18.8247,-8.3956 18.8247,-18.8247 v -62.1646 c 7.0933,-2.5378 12.1429,-9.3006 12.1429,-17.2879 0,-10.1724 -8.1892,-18.3616 -18.3617,-18.3616 z"
         style="opacity:1;fill:#efd89f;fill-opacity:1;stroke:none;stroke-width:1;stroke-linecap:round;stroke-linejoin:round;stroke-miterlimit:4;stroke-dasharray:none;stroke-dashoffset:0"
         inkscape:connector-curvature="0" />
      <circle
         r="7.5595241"
         cy="1304.452"
         cx="-2727.2683"
         id="circle5623"
         style="opacity:0.93000034;fill:#000000;fill-opacity:1;stroke:none;stroke-width:0.23043478;stroke-linecap:round;stroke-linejoin:round;stroke-miterlimit:4;stroke-dasharray:none;stroke-dashoffset:0" />
      <circle
         style="opacity:1;fill:#ffffff;fill-opacity:1;stroke:none;stroke-width:0.10369566;stroke-linecap:round;stroke-linejoin:round;stroke-miterlimit:4;stroke-dasharray:none;stroke-dashoffset:0"
         id="circle5625"
         cx="-2726.2856"
         cy="1300.2943"
         r="3.4017859" />
      <circle
         style="opacity:0.93000034;fill:#000000;fill-opacity:1;stroke:none;stroke-width:0.23043478;stroke-linecap:round;stroke-linejoin:round;stroke-miterlimit:4;stroke-dasharray:none;stroke-dashoffset:0"
         id="circle5627"
         cx="-2686.825"
         cy="1304.452"
         r="7.5595241" />
      <circle
         r="3.4017859"
         cy="1300.2943"
         cx="-2685.8423"
         id="circle5629"
         style="opacity:1;fill:#ffffff;fill-opacity:1;stroke:none;stroke-width:0.10369566;stroke-linecap:round;stroke-linejoin:round;stroke-miterlimit:4;stroke-dasharray:none;stroke-dashoffset:0" />
      <path
         sodipodi:nodetypes="ccccccccccc"
         inkscape:connector-curvature="0"
         id="path5631"
         d="m -2767.3213,1305.2455 0.3341,60.5818 c 0.3178,15.177 4.1992,29.0442 32.6373,27.7217 l 64.1981,-0.4009 c 17.3495,-1.1377 21.6431,-12.0243 22.3322,-38.1878 l 0.03,-49.9706 c 27.8007,-26.2197 9.3195,-54.6062 0.3006,-58.5271 -5.7718,-2.8938 -12.8526,-2.4496 -18.9471,-2.3468 h -88.0051 c -6.083,0.083 -8.6774,-0.4223 -13.0806,2.3468 -24.4213,16.5505 -14.9488,45.2255 0.2004,58.7829 z"
         style="fill:none;stroke:#000000;stroke-width:3.10443163;stroke-linecap:butt;stroke-linejoin:miter;stroke-miterlimit:4;stroke-dasharray:none;stroke-opacity:1" />
      <circle
         r="18.161852"
         cy="1328.6426"
         cx="-2675.8638"
         id="circle5633"
         style="opacity:0.71199999;fill:url(#radialGradient5659);fill-opacity:1;stroke:none;stroke-width:0.27710074;stroke-linecap:round;stroke-linejoin:round;stroke-miterlimit:4;stroke-dasharray:none;stroke-dashoffset:0;filter:url(#filter3789-6-7)" />
      <circle
         style="opacity:0.71199999;fill:url(#radialGradient5661);fill-opacity:1;stroke:none;stroke-width:0.27710074;stroke-linecap:round;stroke-linejoin:round;stroke-miterlimit:4;stroke-dasharray:none;stroke-dashoffset:0;filter:url(#filter3789-6-7)"
         id="circle5643"
         cx="-2738.2297"
         cy="1328.6426"
         r="18.161852" />
      <ellipse
         cy="1343.0056"
         cx="-2707.0466"
         id="ellipse5653"
         style="opacity:0.93000034;fill:#000000;fill-opacity:1;stroke:none;stroke-width:0.30689812;stroke-linecap:round;stroke-linejoin:round;stroke-miterlimit:4;stroke-dasharray:none;stroke-dashoffset:0"
         rx="8.1264877"
         ry="12.473214" />
      <path
         style="opacity:0.71199999;fill:#b61e1e;fill-opacity:1;stroke:none;stroke-width:0.30689812;stroke-linecap:round;stroke-linejoin:round;stroke-miterlimit:4;stroke-dasharray:none;stroke-dashoffset:0"
         d="m -2707.0468,1348.675 a 8.1264875,12.473214 0 0 0 -5.5665,3.3972 8.1264875,12.473214 0 0 0 5.5665,3.4065 8.1264875,12.473214 0 0 0 5.5666,-3.3967 8.1264875,12.473214 0 0 0 -5.5666,-3.407 z"
         id="path5655"
         inkscape:connector-curvature="0" />
      <g
         transform="matrix(0.50272072,0,0,0.50272072,-2576.3598,912.84178)"
         style="stroke:#000000;stroke-width:3.97835207;stroke-miterlimit:4;stroke-dasharray:none"
         id="g1444">
        <rect
           ry="33.277645"
           y="625.50446"
           x="-173.8614"
           height="133.11057"
           width="48.380955"
           id="rect1434"
           style="opacity:1;fill:#ff2a2a;fill-opacity:1;stroke:#000000;stroke-width:3.97835207;stroke-linecap:round;stroke-linejoin:round;stroke-miterlimit:4;stroke-dasharray:none;stroke-dashoffset:0;paint-order:stroke fill markers" />
        <circle
           r="23.88522"
           cy="795.59644"
           cx="-149.67093"
           id="circle1436"
           style="opacity:1;fill:#ff2a2a;fill-opacity:1;stroke:#000000;stroke-width:3.97835207;stroke-linecap:round;stroke-linejoin:round;stroke-miterlimit:4;stroke-dasharray:none;stroke-dashoffset:0;paint-order:stroke fill markers" />
      </g>
      <g
         style="fill:#dc713e;fill-opacity:1;stroke:#ff5555;stroke-opacity:1;filter:url(#filter4165-4-36)"
         transform="matrix(0.48905025,0,0,0.48905025,-2839.1338,1304.4959)"
         id="g973-6-6-6-4-1-29">
        <path
           style="fill:#dc713e;fill-opacity:1;stroke:#ff5555;stroke-width:2;stroke-linecap:round;stroke-linejoin:round;stroke-miterlimit:4;stroke-dasharray:none;stroke-opacity:1"
           d="M 192.69059,56.457425 207.39041,41.757601"
           id="path964-7-0-3-3-0-3"
           inkscape:connector-curvature="0" />
        <path
           inkscape:connector-curvature="0"
           id="path966-5-6-2-0-6-1"
           d="M 198.84853,56.991964 213.54835,42.29214"
           style="fill:#dc713e;fill-opacity:1;stroke:#ff5555;stroke-width:2;stroke-linecap:round;stroke-linejoin:round;stroke-miterlimit:4;stroke-dasharray:none;stroke-opacity:1" />
        <path
           style="fill:#dc713e;fill-opacity:1;stroke:#ff5555;stroke-width:2;stroke-linecap:round;stroke-linejoin:round;stroke-miterlimit:4;stroke-dasharray:none;stroke-opacity:1"
           d="M 205.263,56.991964 219.96282,42.29214"
           id="path968-3-2-0-7-1-9"
           inkscape:connector-curvature="0" />
      </g>
      <g
         id="g2473"
         transform="matrix(0.48905025,0,0,0.48905025,-2776.7678,1304.4959)"
         style="fill:#dc713e;fill-opacity:1;stroke:#ff5555;stroke-opacity:1;filter:url(#filter4165-4-36)">
        <path
           inkscape:connector-curvature="0"
           id="path2467"
           d="M 192.69059,56.457425 207.39041,41.757601"
           style="fill:#dc713e;fill-opacity:1;stroke:#ff5555;stroke-width:2;stroke-linecap:round;stroke-linejoin:round;stroke-miterlimit:4;stroke-dasharray:none;stroke-opacity:1" />
        <path
           style="fill:#dc713e;fill-opacity:1;stroke:#ff5555;stroke-width:2;stroke-linecap:round;stroke-linejoin:round;stroke-miterlimit:4;stroke-dasharray:none;stroke-opacity:1"
           d="M 198.84853,56.991964 213.54835,42.29214"
           id="path2469"
           inkscape:connector-curvature="0" />
        <path
           inkscape:connector-curvature="0"
           id="path2471"
           d="M 205.263,56.991964 219.96282,42.29214"
           style="fill:#dc713e;fill-opacity:1;stroke:#ff5555;stroke-width:2;stroke-linecap:round;stroke-linejoin:round;stroke-miterlimit:4;stroke-dasharray:none;stroke-opacity:1" />
      </g>
    </g>
  </g>
</svg>
