<?xml version="1.0" encoding="UTF-8" standalone="no"?>
<!-- Created with Inkscape (http://www.inkscape.org/) -->

<svg
   xmlns:dc="http://purl.org/dc/elements/1.1/"
   xmlns:cc="http://creativecommons.org/ns#"
   xmlns:rdf="http://www.w3.org/1999/02/22-rdf-syntax-ns#"
   xmlns:svg="http://www.w3.org/2000/svg"
   xmlns="http://www.w3.org/2000/svg"
   xmlns:xlink="http://www.w3.org/1999/xlink"
   xmlns:sodipodi="http://sodipodi.sourceforge.net/DTD/sodipodi-0.dtd"
   xmlns:inkscape="http://www.inkscape.org/namespaces/inkscape"
   width="210mm"
   height="297mm"
   viewBox="0 0 210 297"
   version="1.1"
   id="svg17920"
   inkscape:version="0.92.3 (2405546, 2018-03-11)"
   sodipodi:docname="Yum-chan_Vol-01_20.svg">
  <defs
     id="defs17914">
    <radialGradient
       inkscape:collect="always"
       xlink:href="#linearGradient3247-6"
       id="radialGradient3182"
       gradientUnits="userSpaceOnUse"
       gradientTransform="matrix(1.619044,1.0253054e-6,-9.4532885e-7,1.4927543,-888.87253,707.28308)"
       cx="404.84314"
       cy="320.71384"
       fx="404.84314"
       fy="320.71384"
       r="9.0904226" />
    <linearGradient
       inkscape:collect="always"
       id="linearGradient3247-6">
      <stop
         style="stop-color:#d35f5f;stop-opacity:1;"
         offset="0"
         id="stop3243" />
      <stop
         style="stop-color:#d35f5f;stop-opacity:0;"
         offset="1"
         id="stop3245" />
    </linearGradient>
    <filter
       inkscape:collect="always"
       style="color-interpolation-filters:sRGB"
       id="filter3789-6-7"
       x="-0.012"
       width="1.024"
       y="-0.012"
       height="1.024">
      <feGaussianBlur
         inkscape:collect="always"
         stdDeviation="0.18161852"
         id="feGaussianBlur3791-6-3" />
    </filter>
    <radialGradient
       inkscape:collect="always"
       xlink:href="#linearGradient3247-6"
       id="radialGradient3184"
       gradientUnits="userSpaceOnUse"
       gradientTransform="matrix(1.619044,1.0253054e-6,-9.4532885e-7,1.4927543,-951.23853,707.28308)"
       cx="404.84314"
       cy="320.71384"
       fx="404.84314"
       fy="320.71384"
       r="9.0904226" />
    <filter
       inkscape:collect="always"
       style="color-interpolation-filters:sRGB"
       id="filter4165-4-610"
       x="-0.018703243"
       width="1.0374064"
       y="-0.033482142"
       height="1.0669643">
      <feGaussianBlur
         inkscape:collect="always"
         stdDeviation="0.21253296"
         id="feGaussianBlur4167-9-63" />
    </filter>
  </defs>
  <sodipodi:namedview
     id="base"
     pagecolor="#ffffff"
     bordercolor="#666666"
     borderopacity="1.0"
     inkscape:pageopacity="0.0"
     inkscape:pageshadow="2"
     inkscape:zoom="0.35"
     inkscape:cx="-261.42857"
     inkscape:cy="560"
     inkscape:document-units="mm"
     inkscape:current-layer="layer1"
     showgrid="false"
     inkscape:window-width="1366"
     inkscape:window-height="712"
     inkscape:window-x="0"
     inkscape:window-y="0"
     inkscape:window-maximized="1" />
  <metadata
     id="metadata17917">
    <rdf:RDF>
      <cc:Work
         rdf:about="">
        <dc:format>image/svg+xml</dc:format>
        <dc:type
           rdf:resource="http://purl.org/dc/dcmitype/StillImage" />
        <dc:title></dc:title>
      </cc:Work>
    </rdf:RDF>
  </metadata>
  <g
     inkscape:label="Layer 1"
     inkscape:groupmode="layer"
     id="layer1">
    <g
       id="g3234"
       transform="translate(369.59685,-1027.315)"
       inkscape:export-filename="/home/dito/Pictures/DitoKP's Sticker Packs/Yum-chan_-_The_Kawaii_Bread/Yum-Chan_-_The_Kawaii_Bread_Stickers_Source/Yum-chan_Telegram/Yum-chan_Vol-01_20.png"
       inkscape:export-xdpi="164"
       inkscape:export-ydpi="164">
      <path
         inkscape:connector-curvature="0"
         id="path3124"
         d="m -308.09832,1089.1965 c -24.761,0 -44.69495,19.9339 -44.69495,44.6949 0,14.3619 6.70692,27.0989 17.17157,35.2651 v 68.8108 c 0,13.5544 10.91236,24.4662 24.4667,24.4662 h 93.1163 c 13.55434,0 24.46671,-10.9119 24.46671,-24.4662 v -68.8108 c 10.46464,-8.1662 17.17156,-20.9032 17.17156,-35.2651 0,-24.761 -19.93395,-44.6949 -44.69493,-44.6949 z"
         style="opacity:1;fill:#ffffff;fill-opacity:1;stroke:none;stroke-width:0.22821258;stroke-linecap:round;stroke-linejoin:round;stroke-miterlimit:4;stroke-dasharray:none;stroke-dashoffset:0" />
      <path
         inkscape:connector-curvature="0"
         style="opacity:1;fill:#ac7d35;fill-opacity:1;stroke:none;stroke-width:2;stroke-linecap:round;stroke-linejoin:round;stroke-miterlimit:4;stroke-dasharray:none;stroke-dashoffset:0"
         d="m -311.97438,1112.1017 c -14.72792,0 -26.58442,11.857 -26.58442,26.585 0,10.7674 6.33793,19.9986 15.50138,24.1856 v 65.3495 c 0,11.8454 9.53625,21.3817 21.38164,21.3817 h 73.23171 c 11.84538,0 21.38164,-9.5363 21.38164,-21.3817 v -65.3495 c 9.16349,-4.187 15.50189,-13.4182 15.50189,-24.1856 0,-14.728 -11.85702,-26.585 -26.58494,-26.585 z"
         id="path3126" />
      <path
         id="path3128"
         d="m -311.97438,1102.0476 c -14.72792,0 -26.58442,11.857 -26.58442,26.5849 0,10.7674 6.33793,19.9986 15.50138,24.1856 v 65.3495 c 0,11.8454 9.53625,21.3817 21.38164,21.3817 h 73.23171 c 11.84538,0 21.38164,-9.5363 21.38164,-21.3818 v -65.3494 c 9.16349,-4.187 15.50189,-13.4181 15.50189,-24.1856 0,-14.7279 -11.85702,-26.585 -26.58494,-26.585 z"
         style="opacity:1;fill:#daae64;fill-opacity:1;stroke:#000000;stroke-width:1;stroke-linecap:round;stroke-linejoin:round;stroke-miterlimit:4;stroke-dasharray:none;stroke-dashoffset:0;stroke-opacity:1"
         inkscape:connector-curvature="0" />
      <path
         id="path3130"
         d="m -303.77798,1112.2475 c -10.17246,0 -18.36167,8.1892 -18.36167,18.3616 0,7.9871 5.04977,14.75 12.14293,17.2879 v 62.1647 c 0,10.4291 8.39611,18.8247 18.82521,18.8247 h 53.14973 c 10.42909,0 18.82469,-8.3956 18.82469,-18.8247 v -62.1647 c 7.09337,-2.5378 12.14292,-9.3006 12.14292,-17.2879 0,-10.1724 -8.18921,-18.3616 -18.36167,-18.3616 z"
         style="opacity:1;fill:#efd89f;fill-opacity:1;stroke:none;stroke-width:1;stroke-linecap:round;stroke-linejoin:round;stroke-miterlimit:4;stroke-dasharray:none;stroke-dashoffset:0"
         inkscape:connector-curvature="0" />
      <path
         sodipodi:nodetypes="ccccccccccc"
         inkscape:connector-curvature="0"
         id="path3132"
         d="m -324.87158,1162.6334 0.33409,60.5819 c 0.31787,15.1769 4.19925,29.0442 32.63736,27.7216 l 64.19808,-0.4009 c 17.34948,-1.1376 21.64306,-12.0243 22.33215,-38.1879 l 0.03,-49.9705 c 27.8007,-26.2197 9.31954,-54.6062 0.30068,-58.5272 -5.77186,-2.8937 -12.85266,-2.4495 -18.9471,-2.3468 h -88.00509 c -6.08301,0.084 -8.67748,-0.4222 -13.08067,2.3468 -24.42126,16.5506 -14.94879,45.2256 0.20045,58.783 z"
         style="fill:none;stroke:#000000;stroke-width:3.10443163;stroke-linecap:butt;stroke-linejoin:miter;stroke-miterlimit:4;stroke-dasharray:none;stroke-opacity:1" />
      <circle
         r="18.161852"
         cy="1186.0305"
         cx="-233.41389"
         id="circle3134"
         style="opacity:0.71199999;fill:url(#radialGradient3182);fill-opacity:1;stroke:none;stroke-width:0.27710074;stroke-linecap:round;stroke-linejoin:round;stroke-miterlimit:4;stroke-dasharray:none;stroke-dashoffset:0;filter:url(#filter3789-6-7)" />
      <circle
         style="opacity:0.71199999;fill:url(#radialGradient3184);fill-opacity:1;stroke:none;stroke-width:0.27710074;stroke-linecap:round;stroke-linejoin:round;stroke-miterlimit:4;stroke-dasharray:none;stroke-dashoffset:0;filter:url(#filter3789-6-7)"
         id="circle3136"
         cx="-295.77997"
         cy="1186.0305"
         r="18.161852" />
      <g
         style="fill:#dc713e;fill-opacity:1;stroke:#ff5555;stroke-opacity:1;filter:url(#filter4165-4-610)"
         transform="matrix(0.48905025,0,0,0.48905025,-396.68408,1161.8837)"
         id="g3144">
        <path
           style="fill:#dc713e;fill-opacity:1;stroke:#ff5555;stroke-width:2;stroke-linecap:round;stroke-linejoin:round;stroke-miterlimit:4;stroke-dasharray:none;stroke-opacity:1"
           d="M 192.69059,56.457425 207.39041,41.757601"
           id="path3138"
           inkscape:connector-curvature="0" />
        <path
           inkscape:connector-curvature="0"
           id="path3140"
           d="M 198.84853,56.991964 213.54835,42.29214"
           style="fill:#dc713e;fill-opacity:1;stroke:#ff5555;stroke-width:2;stroke-linecap:round;stroke-linejoin:round;stroke-miterlimit:4;stroke-dasharray:none;stroke-opacity:1" />
        <path
           style="fill:#dc713e;fill-opacity:1;stroke:#ff5555;stroke-width:2;stroke-linecap:round;stroke-linejoin:round;stroke-miterlimit:4;stroke-dasharray:none;stroke-opacity:1"
           d="M 205.263,56.991964 219.96282,42.29214"
           id="path3142"
           inkscape:connector-curvature="0" />
      </g>
      <g
         id="g3152"
         transform="matrix(0.48905025,0,0,0.48905025,-334.31802,1161.8837)"
         style="fill:#dc713e;fill-opacity:1;stroke:#ff5555;stroke-opacity:1;filter:url(#filter4165-4-610)">
        <path
           inkscape:connector-curvature="0"
           id="path3146"
           d="M 192.69059,56.457425 207.39041,41.757601"
           style="fill:#dc713e;fill-opacity:1;stroke:#ff5555;stroke-width:2;stroke-linecap:round;stroke-linejoin:round;stroke-miterlimit:4;stroke-dasharray:none;stroke-opacity:1" />
        <path
           style="fill:#dc713e;fill-opacity:1;stroke:#ff5555;stroke-width:2;stroke-linecap:round;stroke-linejoin:round;stroke-miterlimit:4;stroke-dasharray:none;stroke-opacity:1"
           d="M 198.84853,56.991964 213.54835,42.29214"
           id="path3148"
           inkscape:connector-curvature="0" />
        <path
           inkscape:connector-curvature="0"
           id="path3150"
           d="M 205.263,56.991964 219.96282,42.29214"
           style="fill:#dc713e;fill-opacity:1;stroke:#ff5555;stroke-width:2;stroke-linecap:round;stroke-linejoin:round;stroke-miterlimit:4;stroke-dasharray:none;stroke-opacity:1" />
      </g>
      <rect
         style="opacity:1;fill:#000000;fill-opacity:1;stroke:#000000;stroke-width:0.83618999;stroke-linecap:round;stroke-linejoin:round;stroke-miterlimit:4;stroke-dasharray:none;stroke-dashoffset:0;paint-order:stroke fill markers"
         id="rect3172"
         width="22.941839"
         height="0.761989"
         x="-276.06784"
         y="1200.1217"
         ry="0.3809945" />
      <rect
         ry="0.95214182"
         y="1161.3311"
         x="-255.48805"
         height="1.9042836"
         width="22.941839"
         id="rect3174"
         style="opacity:1;fill:#000000;fill-opacity:1;stroke:#000000;stroke-width:1.32189345;stroke-linecap:round;stroke-linejoin:round;stroke-miterlimit:4;stroke-dasharray:none;stroke-dashoffset:0;paint-order:stroke fill markers" />
      <rect
         transform="scale(-1,1)"
         style="opacity:1;fill:#000000;fill-opacity:1;stroke:#000000;stroke-width:1.32189345;stroke-linecap:round;stroke-linejoin:round;stroke-miterlimit:4;stroke-dasharray:none;stroke-dashoffset:0;paint-order:stroke fill markers"
         id="rect3176"
         width="22.941839"
         height="1.9042836"
         x="273.70572"
         y="1161.3309"
         ry="0.95214182" />
    </g>
  </g>
</svg>
