<?xml version="1.0" encoding="UTF-8" standalone="no"?>
<!-- Created with Inkscape (http://www.inkscape.org/) -->

<svg
   xmlns:dc="http://purl.org/dc/elements/1.1/"
   xmlns:cc="http://creativecommons.org/ns#"
   xmlns:rdf="http://www.w3.org/1999/02/22-rdf-syntax-ns#"
   xmlns:svg="http://www.w3.org/2000/svg"
   xmlns="http://www.w3.org/2000/svg"
   xmlns:xlink="http://www.w3.org/1999/xlink"
   xmlns:sodipodi="http://sodipodi.sourceforge.net/DTD/sodipodi-0.dtd"
   xmlns:inkscape="http://www.inkscape.org/namespaces/inkscape"
   width="210mm"
   height="297mm"
   viewBox="0 0 210 297"
   version="1.1"
   id="svg5566"
   inkscape:version="0.92.3 (2405546, 2018-03-11)"
   sodipodi:docname="Yum-chan_Vol-01_04.svg">
  <defs
     id="defs5560">
    <radialGradient
       inkscape:collect="always"
       xlink:href="#linearGradient3247-6"
       id="radialGradient7000"
       gradientUnits="userSpaceOnUse"
       gradientTransform="matrix(1.619044,1.0253054e-6,-9.4532885e-7,1.4927543,-1718.1863,501.66402)"
       cx="404.84314"
       cy="320.71384"
       fx="404.84314"
       fy="320.71384"
       r="9.0904226" />
    <linearGradient
       inkscape:collect="always"
       id="linearGradient3247-6">
      <stop
         style="stop-color:#d35f5f;stop-opacity:1;"
         offset="0"
         id="stop3243" />
      <stop
         style="stop-color:#d35f5f;stop-opacity:0;"
         offset="1"
         id="stop3245" />
    </linearGradient>
    <filter
       inkscape:collect="always"
       style="color-interpolation-filters:sRGB"
       id="filter3789-6-7"
       x="-0.012"
       width="1.024"
       y="-0.012"
       height="1.024">
      <feGaussianBlur
         inkscape:collect="always"
         stdDeviation="0.18161852"
         id="feGaussianBlur3791-6-3" />
    </filter>
    <radialGradient
       inkscape:collect="always"
       xlink:href="#linearGradient3247-6"
       id="radialGradient7002"
       gradientUnits="userSpaceOnUse"
       gradientTransform="matrix(1.619044,1.0253054e-6,-9.4532885e-7,1.4927543,-1780.5523,501.66402)"
       cx="404.84314"
       cy="320.71384"
       fx="404.84314"
       fy="320.71384"
       r="9.0904226" />
    <filter
       inkscape:collect="always"
       style="color-interpolation-filters:sRGB"
       id="filter4165-4-3"
       x="-0.018703243"
       width="1.0374064"
       y="-0.033482142"
       height="1.0669643">
      <feGaussianBlur
         inkscape:collect="always"
         stdDeviation="0.21253296"
         id="feGaussianBlur4167-9-6" />
    </filter>
  </defs>
  <sodipodi:namedview
     id="base"
     pagecolor="#ffffff"
     bordercolor="#666666"
     borderopacity="1.0"
     inkscape:pageopacity="0.0"
     inkscape:pageshadow="2"
     inkscape:zoom="0.35"
     inkscape:cx="-261.42857"
     inkscape:cy="560"
     inkscape:document-units="mm"
     inkscape:current-layer="layer1"
     showgrid="false"
     inkscape:window-width="1366"
     inkscape:window-height="712"
     inkscape:window-x="0"
     inkscape:window-y="0"
     inkscape:window-maximized="1" />
  <metadata
     id="metadata5563">
    <rdf:RDF>
      <cc:Work
         rdf:about="">
        <dc:format>image/svg+xml</dc:format>
        <dc:type
           rdf:resource="http://purl.org/dc/dcmitype/StillImage" />
        <dc:title></dc:title>
      </cc:Work>
    </rdf:RDF>
  </metadata>
  <g
     inkscape:label="Layer 1"
     inkscape:groupmode="layer"
     id="layer1">
    <g
       id="g8295"
       transform="translate(1198.9106,-821.69592)"
       inkscape:export-filename="/home/dito/Pictures/DitoKP's Sticker Packs/Yum-chan_-_The_Kawaii_Bread/Yum-Chan_-_The_Kawaii_Bread_Stickers_Source/Yum-chan_Telegram/Yum-chan_Vol-01_04.png"
       inkscape:export-xdpi="164"
       inkscape:export-ydpi="164">
      <path
         inkscape:connector-curvature="0"
         id="path6958"
         d="m -1137.412,883.57744 c -24.761,0 -44.695,19.93394 -44.695,44.69495 0,14.36184 6.7069,27.09886 17.1716,35.26501 v 68.8108 c 0,13.5543 10.9123,24.4662 24.4667,24.4662 h 93.1163 c 13.5543,0 24.4667,-10.9119 24.4667,-24.4662 v -68.8108 c 10.4646,-8.16615 17.1715,-20.90317 17.1715,-35.26501 0,-24.76101 -19.9339,-44.69495 -44.6949,-44.69495 z"
         style="opacity:1;fill:#ffffff;fill-opacity:1;stroke:none;stroke-width:0.22821258;stroke-linecap:round;stroke-linejoin:round;stroke-miterlimit:4;stroke-dasharray:none;stroke-dashoffset:0" />
      <path
         inkscape:connector-curvature="0"
         style="opacity:1;fill:#ac7d35;fill-opacity:1;stroke:none;stroke-width:2;stroke-linecap:round;stroke-linejoin:round;stroke-miterlimit:4;stroke-dasharray:none;stroke-dashoffset:0"
         d="m -1141.2881,906.48266 c -14.7279,0 -26.5844,11.85702 -26.5844,26.58495 0,10.76742 6.3379,19.99861 15.5014,24.1856 v 65.34949 c 0,11.8454 9.5362,21.3817 21.3816,21.3817 h 73.2317 c 11.8454,0 21.3816,-9.5363 21.3816,-21.3817 v -65.34949 c 9.1635,-4.18697 15.5019,-13.41815 15.5019,-24.1856 0,-14.72793 -11.857,-26.58495 -26.5849,-26.58495 z"
         id="path6960" />
      <path
         id="path6962"
         d="m -1141.2881,896.42849 c -14.7279,0 -26.5844,11.85702 -26.5844,26.58495 0,10.76741 6.3379,19.99861 15.5014,24.1856 v 65.34946 c 0,11.8454 9.5362,21.3817 21.3816,21.3817 h 73.2317 c 11.8454,0 21.3816,-9.5363 21.3816,-21.3817 v -65.34946 c 9.1635,-4.18697 15.5019,-13.41815 15.5019,-24.1856 0,-14.72793 -11.857,-26.58495 -26.5849,-26.58495 z"
         style="opacity:1;fill:#daae64;fill-opacity:1;stroke:#000000;stroke-width:1;stroke-linecap:round;stroke-linejoin:round;stroke-miterlimit:4;stroke-dasharray:none;stroke-dashoffset:0;stroke-opacity:1"
         inkscape:connector-curvature="0" />
      <path
         id="path6964"
         d="m -1133.0917,906.62839 c -10.1725,0 -18.3617,8.18921 -18.3617,18.36167 0,7.98707 5.0498,14.74997 12.143,17.28783 v 62.16471 c 0,10.4291 8.3961,18.8247 18.8252,18.8247 h 53.1497 c 10.4291,0 18.8247,-8.3956 18.8247,-18.8247 v -62.16471 c 7.0934,-2.53775 12.1429,-9.3006 12.1429,-17.28783 0,-10.17246 -8.1892,-18.36167 -18.3617,-18.36167 z"
         style="opacity:1;fill:#efd89f;fill-opacity:1;stroke:none;stroke-width:1;stroke-linecap:round;stroke-linejoin:round;stroke-miterlimit:4;stroke-dasharray:none;stroke-dashoffset:0"
         inkscape:connector-curvature="0" />
      <g
         transform="translate(0,212.20127)"
         id="g7046">
        <path
           id="path6932"
           style="opacity:1;fill:#000000;fill-opacity:1;stroke:none;stroke-width:0.45633692;stroke-linecap:round;stroke-linejoin:round;stroke-miterlimit:4;stroke-dasharray:none;stroke-dashoffset:0"
           sodipodi:type="arc"
           sodipodi:cx="-1093.9106"
           sodipodi:cy="771.68073"
           sodipodi:rx="14.970354"
           sodipodi:ry="14.970354"
           sodipodi:start="0"
           sodipodi:end="3.1415927"
           d="m -1078.9403,771.68073 a 14.970354,14.970354 0 0 1 -7.4852,12.9647 14.970354,14.970354 0 0 1 -14.9703,0 14.970354,14.970354 0 0 1 -7.4852,-12.96471 l 14.9704,1e-5 z" />
        <path
           inkscape:connector-curvature="0"
           style="opacity:0.71199999;fill:#ff2a2a;fill-opacity:1;stroke:none;stroke-width:0.27890262;stroke-linecap:round;stroke-linejoin:round;stroke-miterlimit:4;stroke-dasharray:none;stroke-dashoffset:0"
           d="m -1093.6949,780.83013 a 9.1495362,9.1495362 0 0 0 -4.7904,1.22352 9.1495362,9.1495362 0 0 0 -2.8667,2.61547 14.970354,14.970354 0 0 0 14.8833,-0.002 9.1495362,9.1495362 0 0 0 -2.8671,-2.61386 9.1495362,9.1495362 0 0 0 -4.3591,-1.22354 z"
           id="path6934" />
      </g>
      <circle
         r="7.5595241"
         cy="956.22083"
         cx="-1114.1323"
         id="circle6966"
         style="opacity:0.93000034;fill:#000000;fill-opacity:1;stroke:none;stroke-width:0.23043478;stroke-linecap:round;stroke-linejoin:round;stroke-miterlimit:4;stroke-dasharray:none;stroke-dashoffset:0" />
      <circle
         style="opacity:1;fill:#ffffff;fill-opacity:1;stroke:none;stroke-width:0.10369566;stroke-linecap:round;stroke-linejoin:round;stroke-miterlimit:4;stroke-dasharray:none;stroke-dashoffset:0"
         id="circle6968"
         cx="-1113.1497"
         cy="952.06311"
         r="3.4017859" />
      <circle
         style="opacity:0.93000034;fill:#000000;fill-opacity:1;stroke:none;stroke-width:0.23043478;stroke-linecap:round;stroke-linejoin:round;stroke-miterlimit:4;stroke-dasharray:none;stroke-dashoffset:0"
         id="circle6970"
         cx="-1073.689"
         cy="956.22083"
         r="7.5595241" />
      <circle
         r="3.4017859"
         cy="952.06311"
         cx="-1072.7062"
         id="circle6972"
         style="opacity:1;fill:#ffffff;fill-opacity:1;stroke:none;stroke-width:0.10369566;stroke-linecap:round;stroke-linejoin:round;stroke-miterlimit:4;stroke-dasharray:none;stroke-dashoffset:0" />
      <path
         sodipodi:nodetypes="ccccccccccc"
         inkscape:connector-curvature="0"
         id="path6976"
         d="m -1154.1853,957.01433 0.3341,60.58177 c 0.3179,15.1771 4.1992,29.0443 32.6373,27.7217 l 64.1981,-0.4009 c 17.3495,-1.1376 21.6431,-12.0242 22.3322,-38.1878 l 0.03,-49.97057 c 27.8007,-26.21971 9.3195,-54.6062 0.3007,-58.52715 -5.7719,-2.89378 -12.8527,-2.44957 -18.9471,-2.3468 h -88.0051 c -6.083,0.0836 -8.6775,-0.42224 -13.0807,2.3468 -24.4213,16.55058 -14.9488,45.22558 0.2004,58.78295 z"
         style="fill:none;stroke:#000000;stroke-width:3.10443163;stroke-linecap:butt;stroke-linejoin:miter;stroke-miterlimit:4;stroke-dasharray:none;stroke-opacity:1" />
      <circle
         r="18.161852"
         cy="980.41144"
         cx="-1062.7277"
         id="circle6978"
         style="opacity:0.71199999;fill:url(#radialGradient7000);fill-opacity:1;stroke:none;stroke-width:0.27710074;stroke-linecap:round;stroke-linejoin:round;stroke-miterlimit:4;stroke-dasharray:none;stroke-dashoffset:0;filter:url(#filter3789-6-7)" />
      <circle
         style="opacity:0.71199999;fill:url(#radialGradient7002);fill-opacity:1;stroke:none;stroke-width:0.27710074;stroke-linecap:round;stroke-linejoin:round;stroke-miterlimit:4;stroke-dasharray:none;stroke-dashoffset:0;filter:url(#filter3789-6-7)"
         id="circle6980"
         cx="-1125.0936"
         cy="980.41144"
         r="18.161852" />
      <g
         id="g6988"
         transform="matrix(0.48905025,0,0,0.48905025,-1225.9978,956.26468)"
         style="fill:#dc713e;fill-opacity:1;stroke:#ff5555;stroke-opacity:1;filter:url(#filter4165-4-3)">
        <path
           inkscape:connector-curvature="0"
           id="path6982"
           d="M 192.69059,56.457425 207.39041,41.757601"
           style="fill:#dc713e;fill-opacity:1;stroke:#ff5555;stroke-width:2;stroke-linecap:round;stroke-linejoin:round;stroke-miterlimit:4;stroke-dasharray:none;stroke-opacity:1" />
        <path
           style="fill:#dc713e;fill-opacity:1;stroke:#ff5555;stroke-width:2;stroke-linecap:round;stroke-linejoin:round;stroke-miterlimit:4;stroke-dasharray:none;stroke-opacity:1"
           d="M 198.84853,56.991964 213.54835,42.29214"
           id="path6984"
           inkscape:connector-curvature="0" />
        <path
           inkscape:connector-curvature="0"
           id="path6986"
           d="M 205.263,56.991964 219.96282,42.29214"
           style="fill:#dc713e;fill-opacity:1;stroke:#ff5555;stroke-width:2;stroke-linecap:round;stroke-linejoin:round;stroke-miterlimit:4;stroke-dasharray:none;stroke-opacity:1" />
      </g>
      <g
         style="fill:#dc713e;fill-opacity:1;stroke:#ff5555;stroke-opacity:1;filter:url(#filter4165-4-3)"
         transform="matrix(0.48905025,0,0,0.48905025,-1163.6317,956.26468)"
         id="g6996">
        <path
           style="fill:#dc713e;fill-opacity:1;stroke:#ff5555;stroke-width:2;stroke-linecap:round;stroke-linejoin:round;stroke-miterlimit:4;stroke-dasharray:none;stroke-opacity:1"
           d="M 192.69059,56.457425 207.39041,41.757601"
           id="path6990"
           inkscape:connector-curvature="0" />
        <path
           inkscape:connector-curvature="0"
           id="path6992"
           d="M 198.84853,56.991964 213.54835,42.29214"
           style="fill:#dc713e;fill-opacity:1;stroke:#ff5555;stroke-width:2;stroke-linecap:round;stroke-linejoin:round;stroke-miterlimit:4;stroke-dasharray:none;stroke-opacity:1" />
        <path
           style="fill:#dc713e;fill-opacity:1;stroke:#ff5555;stroke-width:2;stroke-linecap:round;stroke-linejoin:round;stroke-miterlimit:4;stroke-dasharray:none;stroke-opacity:1"
           d="M 205.263,56.991964 219.96282,42.29214"
           id="path6994"
           inkscape:connector-curvature="0" />
      </g>
    </g>
  </g>
</svg>
