<?xml version="1.0" encoding="UTF-8" standalone="no"?>
<!-- Created with Inkscape (http://www.inkscape.org/) -->

<svg
   xmlns:dc="http://purl.org/dc/elements/1.1/"
   xmlns:cc="http://creativecommons.org/ns#"
   xmlns:rdf="http://www.w3.org/1999/02/22-rdf-syntax-ns#"
   xmlns:svg="http://www.w3.org/2000/svg"
   xmlns="http://www.w3.org/2000/svg"
   xmlns:xlink="http://www.w3.org/1999/xlink"
   xmlns:sodipodi="http://sodipodi.sourceforge.net/DTD/sodipodi-0.dtd"
   xmlns:inkscape="http://www.inkscape.org/namespaces/inkscape"
   width="210mm"
   height="297mm"
   viewBox="0 0 210 297"
   version="1.1"
   id="svg10903"
   inkscape:version="0.92.3 (2405546, 2018-03-11)"
   sodipodi:docname="Yum-chan_Vol-01_11.svg">
  <defs
     id="defs10897">
    <radialGradient
       inkscape:collect="always"
       xlink:href="#linearGradient3247-6"
       id="radialGradient3272"
       gradientUnits="userSpaceOnUse"
       gradientTransform="matrix(1.619044,1.0253054e-6,-9.4532885e-7,1.4927543,-1085.5829,909.63987)"
       cx="404.84314"
       cy="320.71384"
       fx="404.84314"
       fy="320.71384"
       r="9.0904226" />
    <linearGradient
       inkscape:collect="always"
       id="linearGradient3247-6">
      <stop
         style="stop-color:#d35f5f;stop-opacity:1;"
         offset="0"
         id="stop3243" />
      <stop
         style="stop-color:#d35f5f;stop-opacity:0;"
         offset="1"
         id="stop3245" />
    </linearGradient>
    <filter
       inkscape:collect="always"
       style="color-interpolation-filters:sRGB"
       id="filter3789-6-7"
       x="-0.012"
       width="1.024"
       y="-0.012"
       height="1.024">
      <feGaussianBlur
         inkscape:collect="always"
         stdDeviation="0.18161852"
         id="feGaussianBlur3791-6-3" />
    </filter>
    <radialGradient
       inkscape:collect="always"
       xlink:href="#linearGradient3247-6"
       id="radialGradient3274"
       gradientUnits="userSpaceOnUse"
       gradientTransform="matrix(1.619044,1.0253054e-6,-9.4532885e-7,1.4927543,-1147.9489,909.63987)"
       cx="404.84314"
       cy="320.71384"
       fx="404.84314"
       fy="320.71384"
       r="9.0904226" />
    <filter
       inkscape:collect="always"
       style="color-interpolation-filters:sRGB"
       id="filter4165-4-61"
       x="-0.018703243"
       width="1.0374064"
       y="-0.033482142"
       height="1.0669643">
      <feGaussianBlur
         inkscape:collect="always"
         stdDeviation="0.21253296"
         id="feGaussianBlur4167-9-8" />
    </filter>
  </defs>
  <sodipodi:namedview
     id="base"
     pagecolor="#ffffff"
     bordercolor="#666666"
     borderopacity="1.0"
     inkscape:pageopacity="0.0"
     inkscape:pageshadow="2"
     inkscape:zoom="0.35"
     inkscape:cx="-261.42857"
     inkscape:cy="560"
     inkscape:document-units="mm"
     inkscape:current-layer="layer1"
     showgrid="false"
     inkscape:window-width="1366"
     inkscape:window-height="712"
     inkscape:window-x="0"
     inkscape:window-y="0"
     inkscape:window-maximized="1" />
  <metadata
     id="metadata10900">
    <rdf:RDF>
      <cc:Work
         rdf:about="">
        <dc:format>image/svg+xml</dc:format>
        <dc:type
           rdf:resource="http://purl.org/dc/dcmitype/StillImage" />
        <dc:title></dc:title>
      </cc:Work>
    </rdf:RDF>
  </metadata>
  <g
     inkscape:label="Layer 1"
     inkscape:groupmode="layer"
     id="layer1">
    <g
       id="g5251"
       transform="translate(566.30722,-1229.6718)"
       inkscape:export-filename="/home/dito/Pictures/DitoKP's Sticker Packs/Yum-chan_-_The_Kawaii_Bread/Yum-Chan_-_The_Kawaii_Bread_Stickers_Source/Yum-chan_Telegram/Yum-chan_Vol-01_11.png"
       inkscape:export-xdpi="164"
       inkscape:export-ydpi="164">
      <path
         style="opacity:1;fill:#ffffff;fill-opacity:1;stroke:none;stroke-width:0.22821258;stroke-linecap:round;stroke-linejoin:round;stroke-miterlimit:4;stroke-dasharray:none;stroke-dashoffset:0"
         d="m -504.80869,1291.5533 c -24.761,0 -44.69495,19.9339 -44.69495,44.6949 0,14.3619 6.70692,27.0989 17.17157,35.2651 v 68.8108 c 0,13.5543 10.91236,24.4662 24.4667,24.4662 h 93.1163 c 13.55434,0 24.46671,-10.9119 24.46671,-24.4662 v -68.8108 c 10.46464,-8.1662 17.17156,-20.9032 17.17156,-35.2651 0,-24.761 -19.93395,-44.6949 -44.69493,-44.6949 z"
         id="path3236"
         inkscape:connector-curvature="0" />
      <path
         id="path3238"
         d="m -508.68475,1314.4585 c -14.72792,0 -26.58442,11.857 -26.58442,26.585 0,10.7674 6.33793,19.9986 15.50138,24.1856 v 65.3495 c 0,11.8453 9.53625,21.3816 21.38164,21.3816 h 73.23171 c 11.84538,0 21.38164,-9.5363 21.38164,-21.3816 v -65.3495 c 9.16349,-4.187 15.50189,-13.4182 15.50189,-24.1856 0,-14.728 -11.85702,-26.585 -26.58494,-26.585 z"
         style="opacity:1;fill:#ac7d35;fill-opacity:1;stroke:none;stroke-width:2;stroke-linecap:round;stroke-linejoin:round;stroke-miterlimit:4;stroke-dasharray:none;stroke-dashoffset:0"
         inkscape:connector-curvature="0" />
      <path
         inkscape:connector-curvature="0"
         style="opacity:1;fill:#daae64;fill-opacity:1;stroke:#000000;stroke-width:1;stroke-linecap:round;stroke-linejoin:round;stroke-miterlimit:4;stroke-dasharray:none;stroke-dashoffset:0;stroke-opacity:1"
         d="m -508.68475,1304.4043 c -14.72792,0 -26.58442,11.8571 -26.58442,26.585 0,10.7674 6.33793,19.9986 15.50138,24.1856 v 65.3495 c 0,11.8454 9.53625,21.3816 21.38164,21.3816 h 73.23171 c 11.84538,0 21.38164,-9.5362 21.38164,-21.3816 v -65.3495 c 9.16349,-4.187 15.50189,-13.4182 15.50189,-24.1856 0,-14.7279 -11.85702,-26.585 -26.58494,-26.585 z"
         id="path3240" />
      <path
         inkscape:connector-curvature="0"
         style="opacity:1;fill:#efd89f;fill-opacity:1;stroke:none;stroke-width:1;stroke-linecap:round;stroke-linejoin:round;stroke-miterlimit:4;stroke-dasharray:none;stroke-dashoffset:0"
         d="m -500.48835,1314.6042 c -10.17246,0 -18.36167,8.1893 -18.36167,18.3617 0,7.9871 5.04977,14.75 12.14293,17.2878 v 62.1647 c 0,10.4291 8.39611,18.8247 18.82521,18.8247 h 53.14973 c 10.42909,0 18.82469,-8.3956 18.82469,-18.8247 v -62.1647 c 7.09337,-2.5377 12.14292,-9.3006 12.14292,-17.2878 0,-10.1724 -8.18921,-18.3617 -18.36167,-18.3617 z"
         id="path3242" />
      <path
         style="fill:none;stroke:#000000;stroke-width:3.10443163;stroke-linecap:butt;stroke-linejoin:miter;stroke-miterlimit:4;stroke-dasharray:none;stroke-opacity:1"
         d="m -521.58195,1364.9902 0.33409,60.5818 c 0.31787,15.177 4.19925,29.0442 32.63736,27.7216 l 64.19808,-0.4009 c 17.34948,-1.1376 21.64306,-12.0242 22.33215,-38.1877 l 0.03,-49.9706 c 27.8007,-26.2197 9.31954,-54.6062 0.30068,-58.5272 -5.77186,-2.8937 -12.85266,-2.4495 -18.9471,-2.3468 h -88.00509 c -6.08301,0.084 -8.67748,-0.4222 -13.08067,2.3468 -24.42126,16.5506 -14.94879,45.2256 0.20045,58.783 z"
         id="path3246"
         inkscape:connector-curvature="0"
         sodipodi:nodetypes="ccccccccccc" />
      <circle
         style="opacity:0.71199999;fill:url(#radialGradient3272);fill-opacity:1;stroke:none;stroke-width:0.27710074;stroke-linecap:round;stroke-linejoin:round;stroke-miterlimit:4;stroke-dasharray:none;stroke-dashoffset:0;filter:url(#filter3789-6-7)"
         id="circle3248"
         cx="-430.12427"
         cy="1388.3872"
         r="18.161852" />
      <circle
         r="18.161852"
         cy="1388.3872"
         cx="-492.49033"
         id="circle3250"
         style="opacity:0.71199999;fill:url(#radialGradient3274);fill-opacity:1;stroke:none;stroke-width:0.27710074;stroke-linecap:round;stroke-linejoin:round;stroke-miterlimit:4;stroke-dasharray:none;stroke-dashoffset:0;filter:url(#filter3789-6-7)" />
      <g
         transform="translate(0,837.08817)"
         id="g3256">
        <path
           inkscape:connector-curvature="0"
           id="path3252"
           d="m -495.38428,527.36335 -2.78319,0.77686 24.74317,6.90626 -24.74317,6.90628 2.78319,0.77686 27.52635,-7.68314 z"
           style="opacity:1;fill:#000000;fill-opacity:1;stroke:none;stroke-width:0.74951255;stroke-linecap:round;stroke-linejoin:round;stroke-miterlimit:4;stroke-dasharray:none;stroke-dashoffset:0;stroke-opacity:1;paint-order:stroke fill markers" />
        <path
           style="opacity:1;fill:#000000;fill-opacity:1;stroke:none;stroke-width:0.74951255;stroke-linecap:round;stroke-linejoin:round;stroke-miterlimit:4;stroke-dasharray:none;stroke-dashoffset:0;stroke-opacity:1;paint-order:stroke fill markers"
           d="m -427.23028,527.36335 2.78319,0.77686 -24.74317,6.90626 24.74317,6.90628 -2.78319,0.77686 -27.52635,-7.68314 z"
           id="path3254"
           inkscape:connector-curvature="0" />
      </g>
      <path
         style="fill:#dc713e;fill-opacity:1;stroke:#ff5555;stroke-width:2;stroke-linecap:round;stroke-linejoin:round;stroke-miterlimit:4;stroke-dasharray:none;stroke-opacity:1;filter:url(#filter4165-4-61)"
         d="M 192.69059,56.457425 207.39041,41.757601"
         id="path3258"
         inkscape:connector-curvature="0"
         transform="matrix(0.48905025,0,0,0.48905025,-593.39445,1364.2405)" />
      <path
         inkscape:connector-curvature="0"
         id="path3260"
         d="M 198.84853,56.991964 213.54835,42.29214"
         style="fill:#dc713e;fill-opacity:1;stroke:#ff5555;stroke-width:2;stroke-linecap:round;stroke-linejoin:round;stroke-miterlimit:4;stroke-dasharray:none;stroke-opacity:1;filter:url(#filter4165-4-61)"
         transform="matrix(0.48905025,0,0,0.48905025,-593.39445,1364.2405)" />
      <path
         style="fill:#dc713e;fill-opacity:1;stroke:#ff5555;stroke-width:2;stroke-linecap:round;stroke-linejoin:round;stroke-miterlimit:4;stroke-dasharray:none;stroke-opacity:1;filter:url(#filter4165-4-61)"
         d="M 205.263,56.991964 219.96282,42.29214"
         id="path3262"
         inkscape:connector-curvature="0"
         transform="matrix(0.48905025,0,0,0.48905025,-593.39445,1364.2405)" />
      <path
         inkscape:connector-curvature="0"
         id="path3264"
         d="M 192.69059,56.457425 207.39041,41.757601"
         style="fill:#dc713e;fill-opacity:1;stroke:#ff5555;stroke-width:2;stroke-linecap:round;stroke-linejoin:round;stroke-miterlimit:4;stroke-dasharray:none;stroke-opacity:1;filter:url(#filter4165-4-61)"
         transform="matrix(0.48905025,0,0,0.48905025,-531.02839,1364.2405)" />
      <path
         style="fill:#dc713e;fill-opacity:1;stroke:#ff5555;stroke-width:2;stroke-linecap:round;stroke-linejoin:round;stroke-miterlimit:4;stroke-dasharray:none;stroke-opacity:1;filter:url(#filter4165-4-61)"
         d="M 198.84853,56.991964 213.54835,42.29214"
         id="path3266"
         inkscape:connector-curvature="0"
         transform="matrix(0.48905025,0,0,0.48905025,-531.02839,1364.2405)" />
      <path
         inkscape:connector-curvature="0"
         id="path3268"
         d="M 205.263,56.991964 219.96282,42.29214"
         style="fill:#dc713e;fill-opacity:1;stroke:#ff5555;stroke-width:2;stroke-linecap:round;stroke-linejoin:round;stroke-miterlimit:4;stroke-dasharray:none;stroke-opacity:1;filter:url(#filter4165-4-61)"
         transform="matrix(0.48905025,0,0,0.48905025,-531.02839,1364.2405)" />
      <path
         inkscape:connector-curvature="0"
         id="path3122"
         d="m -466.29147,1391.9791 a 8.1972234,7.7068734 0 0 1 8.19721,7.7068 8.1972234,7.7068734 0 0 1 -0.87178,3.4386 8.1972234,7.7068734 0 0 1 0.87178,3.4538 8.1972234,7.7068734 0 0 1 -8.19721,7.7069 9.9683409,7.7068813 0 0 0 9.96838,-7.7069 9.9683409,7.7068813 0 0 0 -1.06015,-3.4537 9.9683409,7.7068813 0 0 0 1.06015,-3.4386 9.9683409,7.7068813 0 0 0 -9.96838,-7.7069 z"
         style="opacity:1;fill:#000000;fill-opacity:1;stroke:none;stroke-width:0.37706062;stroke-linecap:round;stroke-linejoin:round;stroke-miterlimit:4;stroke-dasharray:none;stroke-dashoffset:0;paint-order:stroke fill markers" />
      <g
         transform="translate(2.6458334)"
         id="g3781">
        <path
           inkscape:connector-curvature="0"
           style="opacity:1;fill:#ff0000;fill-opacity:1;stroke:#000000;stroke-width:2;stroke-linecap:round;stroke-linejoin:round;stroke-miterlimit:4;stroke-dasharray:none;stroke-dashoffset:0;paint-order:stroke fill markers"
           d="m -440.49034,1383.8691 a 8.8133268,8.8133268 0 0 0 -12.46381,-10e-5 8.8133268,8.8133268 0 0 0 -2.5132,7.3025 l -5e-5,9.8199 c 5e-5,2.3374 1.88181,4.2191 4.21917,4.2192 h 9.87264 a 8.8133268,8.8133268 0 0 0 7.24986,-2.5132 8.8133268,8.8133268 0 0 0 -5e-5,-12.4638 8.8133268,8.8133268 0 0 0 -4.06448,-2.3005 8.8133268,8.8133268 0 0 0 -2.30008,-4.064 z"
           id="path3406-4" />
        <path
           id="path3450"
           d="m -443.59204,1388.2819 a 6.9960667,6.9960667 0 0 0 -9.89384,-10e-5 6.9960667,6.9960667 0 0 0 -1.99499,5.7969 l -4e-5,7.795 c 4e-5,1.8555 1.4938,3.3492 3.3492,3.3492 h 7.83695 a 6.9960667,6.9960667 0 0 0 5.75498,-1.9949 6.9960667,6.9960667 0 0 0 -4e-5,-9.8938 6.9960667,6.9960667 0 0 0 -3.2264,-1.8263 6.9960667,6.9960667 0 0 0 -1.82582,-3.226 z"
           style="opacity:1;fill:#ff2a2a;fill-opacity:1;stroke:none;stroke-width:2;stroke-linecap:round;stroke-linejoin:round;stroke-miterlimit:4;stroke-dasharray:none;stroke-dashoffset:0;paint-order:stroke fill markers"
           inkscape:connector-curvature="0" />
      </g>
    </g>
  </g>
</svg>
