<?xml version="1.0" encoding="UTF-8" standalone="no"?>
<!-- Created with Inkscape (http://www.inkscape.org/) -->

<svg
   xmlns:dc="http://purl.org/dc/elements/1.1/"
   xmlns:cc="http://creativecommons.org/ns#"
   xmlns:rdf="http://www.w3.org/1999/02/22-rdf-syntax-ns#"
   xmlns:svg="http://www.w3.org/2000/svg"
   xmlns="http://www.w3.org/2000/svg"
   xmlns:xlink="http://www.w3.org/1999/xlink"
   xmlns:sodipodi="http://sodipodi.sourceforge.net/DTD/sodipodi-0.dtd"
   xmlns:inkscape="http://www.inkscape.org/namespaces/inkscape"
   width="210mm"
   height="297mm"
   viewBox="0 0 210 297"
   version="1.1"
   id="svg17162"
   inkscape:version="0.92.3 (2405546, 2018-03-11)"
   sodipodi:docname="Yum-chan_Vol-01_19.svg">
  <defs
     id="defs17156">
    <radialGradient
       inkscape:collect="always"
       xlink:href="#linearGradient3247-6"
       id="radialGradient6626"
       gradientUnits="userSpaceOnUse"
       gradientTransform="matrix(1.619044,1.0253054e-6,-9.4532885e-7,1.4927543,-1718.1863,909.63988)"
       cx="404.84314"
       cy="320.71384"
       fx="404.84314"
       fy="320.71384"
       r="9.0904226" />
    <linearGradient
       inkscape:collect="always"
       id="linearGradient3247-6">
      <stop
         style="stop-color:#d35f5f;stop-opacity:1;"
         offset="0"
         id="stop3243" />
      <stop
         style="stop-color:#d35f5f;stop-opacity:0;"
         offset="1"
         id="stop3245" />
    </linearGradient>
    <filter
       inkscape:collect="always"
       style="color-interpolation-filters:sRGB"
       id="filter3789-6-7"
       x="-0.012"
       width="1.024"
       y="-0.012"
       height="1.024">
      <feGaussianBlur
         inkscape:collect="always"
         stdDeviation="0.18161852"
         id="feGaussianBlur3791-6-3" />
    </filter>
    <radialGradient
       inkscape:collect="always"
       xlink:href="#linearGradient3247-6"
       id="radialGradient6628"
       gradientUnits="userSpaceOnUse"
       gradientTransform="matrix(1.619044,1.0253054e-6,-9.4532885e-7,1.4927543,-1780.5523,909.63988)"
       cx="404.84314"
       cy="320.71384"
       fx="404.84314"
       fy="320.71384"
       r="9.0904226" />
    <filter
       inkscape:collect="always"
       style="color-interpolation-filters:sRGB"
       id="filter4165-4-610"
       x="-0.018703243"
       width="1.0374064"
       y="-0.033482142"
       height="1.0669643">
      <feGaussianBlur
         inkscape:collect="always"
         stdDeviation="0.21253296"
         id="feGaussianBlur4167-9-63" />
    </filter>
  </defs>
  <sodipodi:namedview
     id="base"
     pagecolor="#ffffff"
     bordercolor="#666666"
     borderopacity="1.0"
     inkscape:pageopacity="0.0"
     inkscape:pageshadow="2"
     inkscape:zoom="0.35"
     inkscape:cx="-261.42857"
     inkscape:cy="560"
     inkscape:document-units="mm"
     inkscape:current-layer="layer1"
     showgrid="false"
     inkscape:window-width="1366"
     inkscape:window-height="712"
     inkscape:window-x="0"
     inkscape:window-y="0"
     inkscape:window-maximized="1" />
  <metadata
     id="metadata17159">
    <rdf:RDF>
      <cc:Work
         rdf:about="">
        <dc:format>image/svg+xml</dc:format>
        <dc:type
           rdf:resource="http://purl.org/dc/dcmitype/StillImage" />
        <dc:title></dc:title>
      </cc:Work>
    </rdf:RDF>
  </metadata>
  <g
     inkscape:label="Layer 1"
     inkscape:groupmode="layer"
     id="layer1">
    <g
       id="g6670"
       transform="translate(1198.9106,-1229.6718)"
       inkscape:export-filename="/home/dito/Pictures/DitoKP's Sticker Packs/Yum-chan_-_The_Kawaii_Bread/Yum-Chan_-_The_Kawaii_Bread_Stickers_Source/Yum-chan_Telegram/Yum-chan_Vol-01_19.png"
       inkscape:export-xdpi="164"
       inkscape:export-ydpi="164">
      <path
         style="opacity:1;fill:#ffffff;fill-opacity:1;stroke:none;stroke-width:0.22821258;stroke-linecap:round;stroke-linejoin:round;stroke-miterlimit:4;stroke-dasharray:none;stroke-dashoffset:0"
         d="m -1137.4121,1291.5533 c -24.761,0 -44.6949,19.9339 -44.6949,44.6949 0,14.3619 6.7069,27.0989 17.1716,35.2651 v 68.8108 c 0,13.5544 10.9123,24.4662 24.4667,24.4662 h 93.1163 c 13.5543,0 24.4667,-10.9119 24.4667,-24.4662 v -68.8108 c 10.4646,-8.1662 17.1715,-20.9032 17.1715,-35.2651 0,-24.761 -19.9339,-44.6949 -44.6949,-44.6949 z"
         id="path6584"
         inkscape:connector-curvature="0" />
      <path
         id="path6586"
         d="m -1141.2881,1314.4585 c -14.7279,0 -26.5844,11.857 -26.5844,26.585 0,10.7674 6.3379,19.9986 15.5013,24.1856 v 65.3495 c 0,11.8454 9.5363,21.3817 21.3817,21.3817 h 73.2317 c 11.8454,0 21.3816,-9.5363 21.3816,-21.3817 v -65.3495 c 9.1635,-4.187 15.5019,-13.4182 15.5019,-24.1856 0,-14.728 -11.857,-26.585 -26.5849,-26.585 z"
         style="opacity:1;fill:#ac7d35;fill-opacity:1;stroke:none;stroke-width:2;stroke-linecap:round;stroke-linejoin:round;stroke-miterlimit:4;stroke-dasharray:none;stroke-dashoffset:0"
         inkscape:connector-curvature="0" />
      <path
         inkscape:connector-curvature="0"
         style="opacity:1;fill:#daae64;fill-opacity:1;stroke:#000000;stroke-width:1;stroke-linecap:round;stroke-linejoin:round;stroke-miterlimit:4;stroke-dasharray:none;stroke-dashoffset:0;stroke-opacity:1"
         d="m -1141.2881,1304.4044 c -14.7279,0 -26.5844,11.857 -26.5844,26.5849 0,10.7674 6.3379,19.9986 15.5013,24.1856 v 65.3495 c 0,11.8454 9.5363,21.3817 21.3817,21.3817 h 73.2317 c 11.8454,0 21.3816,-9.5363 21.3816,-21.3818 v -65.3494 c 9.1635,-4.187 15.5019,-13.4181 15.5019,-24.1856 0,-14.7279 -11.857,-26.585 -26.5849,-26.585 z"
         id="path6588" />
      <path
         inkscape:connector-curvature="0"
         style="opacity:1;fill:#efd89f;fill-opacity:1;stroke:none;stroke-width:1;stroke-linecap:round;stroke-linejoin:round;stroke-miterlimit:4;stroke-dasharray:none;stroke-dashoffset:0"
         d="m -1133.0917,1314.6043 c -10.1725,0 -18.3617,8.1892 -18.3617,18.3616 0,7.9871 5.0498,14.75 12.1429,17.2879 v 62.1647 c 0,10.4291 8.3961,18.8247 18.8252,18.8247 h 53.1498 c 10.4291,0 18.8247,-8.3956 18.8247,-18.8247 v -62.1647 c 7.0933,-2.5378 12.1429,-9.3006 12.1429,-17.2879 0,-10.1724 -8.1892,-18.3616 -18.3617,-18.3616 z"
         id="path6590" />
      <path
         style="fill:none;stroke:#000000;stroke-width:3.10443163;stroke-linecap:butt;stroke-linejoin:miter;stroke-miterlimit:4;stroke-dasharray:none;stroke-opacity:1"
         d="m -1154.1853,1364.9902 0.3341,60.5819 c 0.3178,15.1769 4.1992,29.0442 32.6373,27.7216 l 64.1981,-0.4009 c 17.3495,-1.1376 21.6431,-12.0243 22.3322,-38.1879 l 0.03,-49.9705 c 27.8007,-26.2197 9.3195,-54.6062 0.3006,-58.5272 -5.7718,-2.8937 -12.8526,-2.4495 -18.9471,-2.3468 h -88.0051 c -6.083,0.084 -8.6774,-0.4222 -13.0806,2.3468 -24.4213,16.5506 -14.9488,45.2256 0.2004,58.783 z"
         id="path6592"
         inkscape:connector-curvature="0"
         sodipodi:nodetypes="ccccccccccc" />
      <circle
         style="opacity:0.71199999;fill:url(#radialGradient6626);fill-opacity:1;stroke:none;stroke-width:0.27710074;stroke-linecap:round;stroke-linejoin:round;stroke-miterlimit:4;stroke-dasharray:none;stroke-dashoffset:0;filter:url(#filter3789-6-7)"
         id="circle6594"
         cx="-1062.7277"
         cy="1388.3873"
         r="18.161852" />
      <circle
         r="18.161852"
         cy="1388.3873"
         cx="-1125.0938"
         id="circle6596"
         style="opacity:0.71199999;fill:url(#radialGradient6628);fill-opacity:1;stroke:none;stroke-width:0.27710074;stroke-linecap:round;stroke-linejoin:round;stroke-miterlimit:4;stroke-dasharray:none;stroke-dashoffset:0;filter:url(#filter3789-6-7)" />
      <g
         id="g6604"
         transform="matrix(0.48905025,0,0,0.48905025,-1225.9978,1364.2405)"
         style="fill:#dc713e;fill-opacity:1;stroke:#ff5555;stroke-opacity:1;filter:url(#filter4165-4-610)">
        <path
           inkscape:connector-curvature="0"
           id="path6598"
           d="M 192.69059,56.457425 207.39041,41.757601"
           style="fill:#dc713e;fill-opacity:1;stroke:#ff5555;stroke-width:2;stroke-linecap:round;stroke-linejoin:round;stroke-miterlimit:4;stroke-dasharray:none;stroke-opacity:1" />
        <path
           style="fill:#dc713e;fill-opacity:1;stroke:#ff5555;stroke-width:2;stroke-linecap:round;stroke-linejoin:round;stroke-miterlimit:4;stroke-dasharray:none;stroke-opacity:1"
           d="M 198.84853,56.991964 213.54835,42.29214"
           id="path6600"
           inkscape:connector-curvature="0" />
        <path
           inkscape:connector-curvature="0"
           id="path6602"
           d="M 205.263,56.991964 219.96282,42.29214"
           style="fill:#dc713e;fill-opacity:1;stroke:#ff5555;stroke-width:2;stroke-linecap:round;stroke-linejoin:round;stroke-miterlimit:4;stroke-dasharray:none;stroke-opacity:1" />
      </g>
      <g
         style="fill:#dc713e;fill-opacity:1;stroke:#ff5555;stroke-opacity:1;filter:url(#filter4165-4-610)"
         transform="matrix(0.48905025,0,0,0.48905025,-1163.6318,1364.2405)"
         id="g6612">
        <path
           style="fill:#dc713e;fill-opacity:1;stroke:#ff5555;stroke-width:2;stroke-linecap:round;stroke-linejoin:round;stroke-miterlimit:4;stroke-dasharray:none;stroke-opacity:1"
           d="M 192.69059,56.457425 207.39041,41.757601"
           id="path6606"
           inkscape:connector-curvature="0" />
        <path
           inkscape:connector-curvature="0"
           id="path6608"
           d="M 198.84853,56.991964 213.54835,42.29214"
           style="fill:#dc713e;fill-opacity:1;stroke:#ff5555;stroke-width:2;stroke-linecap:round;stroke-linejoin:round;stroke-miterlimit:4;stroke-dasharray:none;stroke-opacity:1" />
        <path
           style="fill:#dc713e;fill-opacity:1;stroke:#ff5555;stroke-width:2;stroke-linecap:round;stroke-linejoin:round;stroke-miterlimit:4;stroke-dasharray:none;stroke-opacity:1"
           d="M 205.263,56.991964 219.96282,42.29214"
           id="path6610"
           inkscape:connector-curvature="0" />
      </g>
      <rect
         style="opacity:1;fill:#000000;fill-opacity:1;stroke:#000000;stroke-width:1.32189345;stroke-linecap:round;stroke-linejoin:round;stroke-miterlimit:4;stroke-dasharray:none;stroke-dashoffset:0;paint-order:stroke fill markers"
         id="rect6614"
         width="22.941839"
         height="1.9042836"
         x="-1084.8018"
         y="1363.6879"
         ry="0.95214182" />
      <rect
         ry="0.95214182"
         y="1363.6877"
         x="1103.0194"
         height="1.9042836"
         width="22.941839"
         id="rect6616"
         style="opacity:1;fill:#000000;fill-opacity:1;stroke:#000000;stroke-width:1.32189345;stroke-linecap:round;stroke-linejoin:round;stroke-miterlimit:4;stroke-dasharray:none;stroke-dashoffset:0;paint-order:stroke fill markers"
         transform="scale(-1,1)" />
      <path
         id="path6618"
         style="opacity:1;fill:#000000;fill-opacity:1;stroke:none;stroke-width:0.2078504;stroke-linecap:round;stroke-linejoin:round;stroke-miterlimit:4;stroke-dasharray:none;stroke-dashoffset:0"
         sodipodi:type="arc"
         sodipodi:cx="-1068.0176"
         sodipodi:cy="1364.5338"
         sodipodi:rx="6.8186336"
         sodipodi:ry="6.8186336"
         sodipodi:start="0"
         sodipodi:end="3.1415927"
         d="m -1061.1989,1364.5338 a 6.8186336,6.8186336 0 0 1 -3.4094,5.9051 6.8186336,6.8186336 0 0 1 -6.8186,0 6.8186336,6.8186336 0 0 1 -3.4093,-5.9051 l 6.8186,0 z" />
      <path
         d="m -1102.3585,1364.5338 a 6.8186336,6.8186336 0 0 1 -3.4093,5.9051 6.8186336,6.8186336 0 0 1 -6.8186,0 6.8186336,6.8186336 0 0 1 -3.4094,-5.9051 l 6.8187,0 z"
         sodipodi:end="3.1415927"
         sodipodi:start="0"
         sodipodi:ry="6.8186336"
         sodipodi:rx="6.8186336"
         sodipodi:cy="1364.5338"
         sodipodi:cx="-1109.1771"
         sodipodi:type="arc"
         style="opacity:1;fill:#000000;fill-opacity:1;stroke:none;stroke-width:0.2078504;stroke-linecap:round;stroke-linejoin:round;stroke-miterlimit:4;stroke-dasharray:none;stroke-dashoffset:0"
         id="path6620" />
      <path
         style="fill:none;stroke:#000000;stroke-width:3;stroke-linecap:round;stroke-linejoin:round;stroke-miterlimit:4;stroke-dasharray:none;stroke-opacity:1"
         d="m -1079.4732,1395.5747 c 0,0 -7.4836,11.7599 -28.8651,10.1563"
         id="path6622"
         inkscape:connector-curvature="0" />
    </g>
  </g>
</svg>
