<?xml version="1.0" encoding="UTF-8" standalone="no"?>
<!-- Created with Inkscape (http://www.inkscape.org/) -->

<svg
   xmlns:dc="http://purl.org/dc/elements/1.1/"
   xmlns:cc="http://creativecommons.org/ns#"
   xmlns:rdf="http://www.w3.org/1999/02/22-rdf-syntax-ns#"
   xmlns:svg="http://www.w3.org/2000/svg"
   xmlns="http://www.w3.org/2000/svg"
   xmlns:xlink="http://www.w3.org/1999/xlink"
   xmlns:sodipodi="http://sodipodi.sourceforge.net/DTD/sodipodi-0.dtd"
   xmlns:inkscape="http://www.inkscape.org/namespaces/inkscape"
   width="210mm"
   height="297mm"
   viewBox="0 0 210 297"
   version="1.1"
   id="svg9407"
   inkscape:version="0.92.3 (2405546, 2018-03-11)"
   sodipodi:docname="Yum-chan_Vol-01_09.svg">
  <defs
     id="defs9401">
    <radialGradient
       inkscape:collect="always"
       xlink:href="#linearGradient3247-6"
       id="radialGradient5381"
       gradientUnits="userSpaceOnUse"
       gradientTransform="matrix(1.619044,1.0253054e-6,-9.4532885e-7,1.4927543,-1084.7817,282.19792)"
       cx="404.84314"
       cy="320.71384"
       fx="404.84314"
       fy="320.71384"
       r="9.0904226" />
    <linearGradient
       inkscape:collect="always"
       id="linearGradient3247-6">
      <stop
         style="stop-color:#d35f5f;stop-opacity:1;"
         offset="0"
         id="stop3243" />
      <stop
         style="stop-color:#d35f5f;stop-opacity:0;"
         offset="1"
         id="stop3245" />
    </linearGradient>
    <filter
       inkscape:collect="always"
       style="color-interpolation-filters:sRGB"
       id="filter3789-6-7"
       x="-0.012"
       width="1.024"
       y="-0.012"
       height="1.024">
      <feGaussianBlur
         inkscape:collect="always"
         stdDeviation="0.18161852"
         id="feGaussianBlur3791-6-3" />
    </filter>
    <radialGradient
       inkscape:collect="always"
       xlink:href="#linearGradient3247-6"
       id="radialGradient5383"
       gradientUnits="userSpaceOnUse"
       gradientTransform="matrix(1.619044,1.0253054e-6,-9.4532885e-7,1.4927543,-1147.1477,282.19792)"
       cx="404.84314"
       cy="320.71384"
       fx="404.84314"
       fy="320.71384"
       r="9.0904226" />
    <filter
       inkscape:collect="always"
       style="color-interpolation-filters:sRGB"
       id="filter4165-4-7"
       x="-0.018703243"
       width="1.0374064"
       y="-0.033482142"
       height="1.0669643">
      <feGaussianBlur
         inkscape:collect="always"
         stdDeviation="0.21253296"
         id="feGaussianBlur4167-9-59" />
    </filter>
  </defs>
  <sodipodi:namedview
     id="base"
     pagecolor="#ffffff"
     bordercolor="#666666"
     borderopacity="1.0"
     inkscape:pageopacity="0.0"
     inkscape:pageshadow="2"
     inkscape:zoom="0.35"
     inkscape:cx="-261.42857"
     inkscape:cy="560"
     inkscape:document-units="mm"
     inkscape:current-layer="layer1"
     showgrid="false"
     inkscape:window-width="1366"
     inkscape:window-height="712"
     inkscape:window-x="0"
     inkscape:window-y="0"
     inkscape:window-maximized="1" />
  <metadata
     id="metadata9404">
    <rdf:RDF>
      <cc:Work
         rdf:about="">
        <dc:format>image/svg+xml</dc:format>
        <dc:type
           rdf:resource="http://purl.org/dc/dcmitype/StillImage" />
        <dc:title></dc:title>
      </cc:Work>
    </rdf:RDF>
  </metadata>
  <g
     inkscape:label="Layer 1"
     inkscape:groupmode="layer"
     id="layer1">
    <g
       id="g2403"
       transform="rotate(30,943.03299,1498.1802)"
       inkscape:export-filename="/home/dito/Pictures/DitoKP's Sticker Packs/Yum-chan_-_The_Kawaii_Bread/Yum-Chan_-_The_Kawaii_Bread_Stickers_Source/Yum-chan_Telegram/Yum-chan_Vol-01_09.png"
       inkscape:export-xdpi="164"
       inkscape:export-ydpi="164">
      <path
         style="opacity:1;fill:#ffffff;fill-opacity:1;stroke:none;stroke-width:0.22821258;stroke-linecap:round;stroke-linejoin:round;stroke-miterlimit:4;stroke-dasharray:none;stroke-dashoffset:0"
         d="m -504.00748,664.11134 c -24.761,0 -44.69495,19.93394 -44.69495,44.69495 0,14.36184 6.70692,27.09886 17.17157,35.26501 v 68.8108 c 0,13.55434 10.91236,24.4662 24.4667,24.4662 h 93.1163 c 13.55434,0 24.46671,-10.91186 24.46671,-24.4662 v -68.8108 c 10.46464,-8.16615 17.17156,-20.90317 17.17156,-35.26501 0,-24.76101 -19.93395,-44.69495 -44.69493,-44.69495 z"
         id="path5341"
         inkscape:connector-curvature="0" />
      <path
         id="path5343"
         d="m -507.88354,687.01656 c -14.72792,0 -26.58442,11.85702 -26.58442,26.58495 0,10.76742 6.33793,19.99861 15.50138,24.1856 v 65.34949 c 0,11.84539 9.53625,21.38165 21.38164,21.38165 h 73.23171 c 11.84538,0 21.38164,-9.53626 21.38164,-21.38165 v -65.34949 c 9.16349,-4.18697 15.50189,-13.41815 15.50189,-24.1856 0,-14.72793 -11.85702,-26.58495 -26.58494,-26.58495 z"
         style="opacity:1;fill:#ac7d35;fill-opacity:1;stroke:none;stroke-width:2;stroke-linecap:round;stroke-linejoin:round;stroke-miterlimit:4;stroke-dasharray:none;stroke-dashoffset:0"
         inkscape:connector-curvature="0" />
      <path
         inkscape:connector-curvature="0"
         style="opacity:1;fill:#daae64;fill-opacity:1;stroke:#000000;stroke-width:1;stroke-linecap:round;stroke-linejoin:round;stroke-miterlimit:4;stroke-dasharray:none;stroke-dashoffset:0;stroke-opacity:1"
         d="m -507.88354,676.96239 c -14.72792,0 -26.58442,11.85702 -26.58442,26.58495 0,10.76741 6.33793,19.99861 15.50138,24.1856 v 65.34949 c 0,11.84539 9.53625,21.38165 21.38164,21.38165 h 73.23171 c 11.84538,0 21.38164,-9.53626 21.38164,-21.38165 v -65.34949 c 9.16349,-4.18697 15.50189,-13.41815 15.50189,-24.1856 0,-14.72793 -11.85702,-26.58495 -26.58494,-26.58495 z"
         id="path5345" />
      <path
         inkscape:connector-curvature="0"
         style="opacity:1;fill:#efd89f;fill-opacity:1;stroke:none;stroke-width:1;stroke-linecap:round;stroke-linejoin:round;stroke-miterlimit:4;stroke-dasharray:none;stroke-dashoffset:0"
         d="m -499.68714,687.16229 c -10.17246,0 -18.36167,8.18921 -18.36167,18.36167 0,7.98707 5.04977,14.74997 12.14293,17.28783 v 62.16468 c 0,10.42909 8.39611,18.82469 18.82521,18.82469 h 53.14973 c 10.42909,0 18.82469,-8.3956 18.82469,-18.82469 v -62.16468 c 7.09337,-2.53775 12.14292,-9.3006 12.14292,-17.28783 0,-10.17246 -8.18921,-18.36167 -18.36167,-18.36167 z"
         id="path5347" />
      <path
         style="fill:none;stroke:#000000;stroke-width:3.10443163;stroke-linecap:butt;stroke-linejoin:miter;stroke-miterlimit:4;stroke-dasharray:none;stroke-opacity:1"
         d="m -520.78074,737.54823 0.33409,60.58182 c 0.31787,15.177 4.19925,29.04423 32.63736,27.72164 l 64.19808,-0.4009 c 17.34948,-1.13764 21.64306,-12.02424 22.33215,-38.18776 l 0.03,-49.9706 c 27.8007,-26.21971 9.31954,-54.6062 0.30068,-58.52715 -5.77186,-2.89378 -12.85266,-2.44957 -18.9471,-2.3468 h -88.00509 c -6.08301,0.0836 -8.67748,-0.42224 -13.08067,2.3468 -24.42126,16.55058 -14.94879,45.22558 0.20045,58.78295 z"
         id="path5351"
         inkscape:connector-curvature="0"
         sodipodi:nodetypes="ccccccccccc" />
      <circle
         style="opacity:0.71199999;fill:url(#radialGradient5381);fill-opacity:1;stroke:none;stroke-width:0.27710074;stroke-linecap:round;stroke-linejoin:round;stroke-miterlimit:4;stroke-dasharray:none;stroke-dashoffset:0;filter:url(#filter3789-6-7)"
         id="circle5353"
         cx="-429.32306"
         cy="760.94525"
         r="18.161852" />
      <circle
         r="18.161852"
         cy="760.94525"
         cx="-491.68912"
         id="circle5363"
         style="opacity:0.71199999;fill:url(#radialGradient5383);fill-opacity:1;stroke:none;stroke-width:0.27710074;stroke-linecap:round;stroke-linejoin:round;stroke-miterlimit:4;stroke-dasharray:none;stroke-dashoffset:0;filter:url(#filter3789-6-7)" />
      <g
         id="g5377"
         transform="translate(0.80120634,210.17539)">
        <path
           inkscape:connector-curvature="0"
           id="path5373"
           d="m -495.38428,526.83418 -2.78319,0.77686 24.74317,6.90626 -24.74317,6.90628 2.78319,0.77686 27.52635,-7.68314 z"
           style="opacity:1;fill:#000000;fill-opacity:1;stroke:none;stroke-width:0.74951255;stroke-linecap:round;stroke-linejoin:round;stroke-miterlimit:4;stroke-dasharray:none;stroke-dashoffset:0;stroke-opacity:1;paint-order:stroke fill markers" />
        <path
           style="opacity:1;fill:#000000;fill-opacity:1;stroke:none;stroke-width:0.74951255;stroke-linecap:round;stroke-linejoin:round;stroke-miterlimit:4;stroke-dasharray:none;stroke-dashoffset:0;stroke-opacity:1;paint-order:stroke fill markers"
           d="m -427.23028,526.83418 2.78319,0.77686 -24.74317,6.90626 24.74317,6.90628 -2.78319,0.77686 -27.52635,-7.68314 z"
           id="path5375"
           inkscape:connector-curvature="0" />
      </g>
      <path
         id="path5407"
         style="opacity:1;fill:#000000;fill-opacity:1;stroke:none;stroke-width:0.45633692;stroke-linecap:round;stroke-linejoin:round;stroke-miterlimit:4;stroke-dasharray:none;stroke-dashoffset:0"
         sodipodi:type="arc"
         sodipodi:cx="-460.50607"
         sodipodi:cy="768.09912"
         sodipodi:rx="14.970354"
         sodipodi:ry="14.970354"
         sodipodi:start="0"
         sodipodi:end="3.1415927"
         d="m -445.53572,768.09912 a 14.970354,14.970354 0 0 1 -7.48518,12.96471 14.970354,14.970354 0 0 1 -14.97035,0 14.970354,14.970354 0 0 1 -7.48518,-12.96471 l 14.97036,0 z" />
      <path
         inkscape:connector-curvature="0"
         style="opacity:0.71199999;fill:#ff2a2a;fill-opacity:1;stroke:none;stroke-width:0.27890262;stroke-linecap:round;stroke-linejoin:round;stroke-miterlimit:4;stroke-dasharray:none;stroke-dashoffset:0"
         d="m -460.2903,777.24856 a 9.1495362,9.1495362 0 0 0 -4.79041,1.22352 9.1495362,9.1495362 0 0 0 -2.86669,2.61547 14.970354,14.970354 0 0 0 14.8833,-0.002 9.1495362,9.1495362 0 0 0 -2.86709,-2.61386 9.1495362,9.1495362 0 0 0 -4.35911,-1.22354 z"
         id="path5409" />
      <g
         style="fill:#dc713e;fill-opacity:1;stroke:#ff5555;stroke-opacity:1;filter:url(#filter4165-4-7)"
         transform="matrix(0.48905025,0,0,0.48905025,-592.59324,736.7985)"
         id="g973-6-6-6-4-1-2">
        <path
           style="fill:#dc713e;fill-opacity:1;stroke:#ff5555;stroke-width:2;stroke-linecap:round;stroke-linejoin:round;stroke-miterlimit:4;stroke-dasharray:none;stroke-opacity:1"
           d="M 192.69059,56.457425 207.39041,41.757601"
           id="path964-7-0-3-3-0-28"
           inkscape:connector-curvature="0" />
        <path
           inkscape:connector-curvature="0"
           id="path966-5-6-2-0-6-9"
           d="M 198.84853,56.991964 213.54835,42.29214"
           style="fill:#dc713e;fill-opacity:1;stroke:#ff5555;stroke-width:2;stroke-linecap:round;stroke-linejoin:round;stroke-miterlimit:4;stroke-dasharray:none;stroke-opacity:1" />
        <path
           style="fill:#dc713e;fill-opacity:1;stroke:#ff5555;stroke-width:2;stroke-linecap:round;stroke-linejoin:round;stroke-miterlimit:4;stroke-dasharray:none;stroke-opacity:1"
           d="M 205.263,56.991964 219.96282,42.29214"
           id="path968-3-2-0-7-1-7"
           inkscape:connector-curvature="0" />
      </g>
      <g
         id="g2381"
         transform="matrix(0.48905025,0,0,0.48905025,-530.22718,736.7985)"
         style="fill:#dc713e;fill-opacity:1;stroke:#ff5555;stroke-opacity:1;filter:url(#filter4165-4-7)">
        <path
           inkscape:connector-curvature="0"
           id="path2375"
           d="M 192.69059,56.457425 207.39041,41.757601"
           style="fill:#dc713e;fill-opacity:1;stroke:#ff5555;stroke-width:2;stroke-linecap:round;stroke-linejoin:round;stroke-miterlimit:4;stroke-dasharray:none;stroke-opacity:1" />
        <path
           style="fill:#dc713e;fill-opacity:1;stroke:#ff5555;stroke-width:2;stroke-linecap:round;stroke-linejoin:round;stroke-miterlimit:4;stroke-dasharray:none;stroke-opacity:1"
           d="M 198.84853,56.991964 213.54835,42.29214"
           id="path2377"
           inkscape:connector-curvature="0" />
        <path
           inkscape:connector-curvature="0"
           id="path2379"
           d="M 205.263,56.991964 219.96282,42.29214"
           style="fill:#dc713e;fill-opacity:1;stroke:#ff5555;stroke-width:2;stroke-linecap:round;stroke-linejoin:round;stroke-miterlimit:4;stroke-dasharray:none;stroke-opacity:1" />
      </g>
    </g>
  </g>
</svg>
