<?xml version="1.0" encoding="UTF-8" standalone="no"?>
<!-- Created with Inkscape (http://www.inkscape.org/) -->

<svg
   xmlns:dc="http://purl.org/dc/elements/1.1/"
   xmlns:cc="http://creativecommons.org/ns#"
   xmlns:rdf="http://www.w3.org/1999/02/22-rdf-syntax-ns#"
   xmlns:svg="http://www.w3.org/2000/svg"
   xmlns="http://www.w3.org/2000/svg"
   xmlns:xlink="http://www.w3.org/1999/xlink"
   xmlns:sodipodi="http://sodipodi.sourceforge.net/DTD/sodipodi-0.dtd"
   xmlns:inkscape="http://www.inkscape.org/namespaces/inkscape"
   width="210mm"
   height="297mm"
   viewBox="0 0 210 297"
   version="1.1"
   id="svg6322"
   inkscape:version="0.92.3 (2405546, 2018-03-11)"
   sodipodi:docname="Yum-chan_Vol-01_05.svg">
  <defs
     id="defs6316">
    <radialGradient
       inkscape:collect="always"
       xlink:href="#linearGradient3247-6"
       id="radialGradient4275"
       gradientUnits="userSpaceOnUse"
       gradientTransform="matrix(1.619044,1.0253054e-6,-9.4532885e-7,1.4927543,-1291.2019,283.98871)"
       cx="404.84314"
       cy="320.71384"
       fx="404.84314"
       fy="320.71384"
       r="9.0904226" />
    <linearGradient
       inkscape:collect="always"
       id="linearGradient3247-6">
      <stop
         style="stop-color:#d35f5f;stop-opacity:1;"
         offset="0"
         id="stop3243" />
      <stop
         style="stop-color:#d35f5f;stop-opacity:0;"
         offset="1"
         id="stop3245" />
    </linearGradient>
    <filter
       inkscape:collect="always"
       style="color-interpolation-filters:sRGB"
       id="filter3789-6-7"
       x="-0.012"
       width="1.024"
       y="-0.012"
       height="1.024">
      <feGaussianBlur
         inkscape:collect="always"
         stdDeviation="0.18161852"
         id="feGaussianBlur3791-6-3" />
    </filter>
    <radialGradient
       inkscape:collect="always"
       xlink:href="#linearGradient3247-6"
       id="radialGradient4277"
       gradientUnits="userSpaceOnUse"
       gradientTransform="matrix(1.619044,1.0253054e-6,-9.4532885e-7,1.4927543,-1353.568,283.98871)"
       cx="404.84314"
       cy="320.71384"
       fx="404.84314"
       fy="320.71384"
       r="9.0904226" />
    <filter
       inkscape:collect="always"
       style="color-interpolation-filters:sRGB"
       id="filter4165-4-62"
       x="-0.018703243"
       width="1.0374064"
       y="-0.033482142"
       height="1.0669643">
      <feGaussianBlur
         inkscape:collect="always"
         stdDeviation="0.21253296"
         id="feGaussianBlur4167-9-9" />
    </filter>
  </defs>
  <sodipodi:namedview
     id="base"
     pagecolor="#ffffff"
     bordercolor="#666666"
     borderopacity="1.0"
     inkscape:pageopacity="0.0"
     inkscape:pageshadow="2"
     inkscape:zoom="0.35"
     inkscape:cx="-261.42857"
     inkscape:cy="560"
     inkscape:document-units="mm"
     inkscape:current-layer="layer1"
     showgrid="false"
     inkscape:window-width="1366"
     inkscape:window-height="712"
     inkscape:window-x="0"
     inkscape:window-y="0"
     inkscape:window-maximized="1" />
  <metadata
     id="metadata6319">
    <rdf:RDF>
      <cc:Work
         rdf:about="">
        <dc:format>image/svg+xml</dc:format>
        <dc:type
           rdf:resource="http://purl.org/dc/dcmitype/StillImage" />
        <dc:title></dc:title>
      </cc:Work>
    </rdf:RDF>
  </metadata>
  <g
     inkscape:label="Layer 1"
     inkscape:groupmode="layer"
     id="layer1">
    <g
       id="g5851"
       transform="translate(771.92627,-604.02061)"
       inkscape:export-filename="/home/dito/Pictures/DitoKP's Sticker Packs/Yum-chan_-_The_Kawaii_Bread/Yum-Chan_-_The_Kawaii_Bread_Stickers_Source/Yum-chan_Telegram/Yum-chan_Vol-01_05.png"
       inkscape:export-xdpi="164"
       inkscape:export-ydpi="164">
      <path
         style="opacity:1;fill:#ffffff;fill-opacity:1;stroke:none;stroke-width:0.22821258;stroke-linecap:round;stroke-linejoin:round;stroke-miterlimit:4;stroke-dasharray:none;stroke-dashoffset:0"
         d="m -710.42774,665.90213 c -24.761,0 -44.69495,19.93394 -44.69495,44.69495 0,14.36184 6.70692,27.09886 17.17157,35.26501 v 68.8108 c 0,13.55434 10.91236,24.4662 24.4667,24.4662 h 93.1163 c 13.55434,0 24.46671,-10.91186 24.46671,-24.4662 v -68.8108 c 10.46464,-8.16615 17.17156,-20.90317 17.17156,-35.26501 0,-24.76101 -19.93395,-44.69495 -44.69493,-44.69495 z"
         id="path4233"
         inkscape:connector-curvature="0" />
      <path
         id="path4235"
         d="m -714.3038,688.80735 c -14.72792,0 -26.58442,11.85702 -26.58442,26.58495 0,10.76742 6.33793,19.99861 15.50138,24.1856 v 65.34949 c 0,11.84539 9.53625,21.38165 21.38164,21.38165 h 73.23171 c 11.84538,0 21.38164,-9.53626 21.38164,-21.38165 V 739.5779 c 9.16349,-4.18697 15.50189,-13.41815 15.50189,-24.1856 0,-14.72793 -11.85702,-26.58495 -26.58494,-26.58495 z"
         style="opacity:1;fill:#ac7d35;fill-opacity:1;stroke:none;stroke-width:2;stroke-linecap:round;stroke-linejoin:round;stroke-miterlimit:4;stroke-dasharray:none;stroke-dashoffset:0"
         inkscape:connector-curvature="0" />
      <path
         inkscape:connector-curvature="0"
         style="opacity:1;fill:#daae64;fill-opacity:1;stroke:#000000;stroke-width:1;stroke-linecap:round;stroke-linejoin:round;stroke-miterlimit:4;stroke-dasharray:none;stroke-dashoffset:0;stroke-opacity:1"
         d="m -714.3038,678.75318 c -14.72792,0 -26.58442,11.85702 -26.58442,26.58495 0,10.76741 6.33793,19.99861 15.50138,24.1856 v 65.34949 c 0,11.84539 9.53625,21.38165 21.38164,21.38165 h 73.23171 c 11.84538,0 21.38164,-9.53626 21.38164,-21.38165 v -65.34949 c 9.16349,-4.18697 15.50189,-13.41815 15.50189,-24.1856 0,-14.72793 -11.85702,-26.58495 -26.58494,-26.58495 z"
         id="path4237" />
      <path
         inkscape:connector-curvature="0"
         style="opacity:1;fill:#efd89f;fill-opacity:1;stroke:none;stroke-width:1;stroke-linecap:round;stroke-linejoin:round;stroke-miterlimit:4;stroke-dasharray:none;stroke-dashoffset:0"
         d="m -706.1074,688.95308 c -10.17246,0 -18.36167,8.18921 -18.36167,18.36167 0,7.98707 5.04977,14.74997 12.14293,17.28783 v 62.16468 c 0,10.42909 8.39611,18.82469 18.82521,18.82469 h 53.14973 c 10.42909,0 18.82469,-8.3956 18.82469,-18.82469 v -62.16468 c 7.09337,-2.53775 12.14292,-9.3006 12.14292,-17.28783 0,-10.17246 -8.18921,-18.36167 -18.36167,-18.36167 z"
         id="path4239" />
      <circle
         style="opacity:0.93000034;fill:#000000;fill-opacity:1;stroke:none;stroke-width:0.23043478;stroke-linecap:round;stroke-linejoin:round;stroke-miterlimit:4;stroke-dasharray:none;stroke-dashoffset:0"
         id="circle4241"
         cx="-687.14807"
         cy="738.54553"
         r="7.5595241" />
      <circle
         r="3.4017859"
         cy="734.38782"
         cx="-686.16534"
         id="circle4243"
         style="opacity:1;fill:#ffffff;fill-opacity:1;stroke:none;stroke-width:0.10369566;stroke-linecap:round;stroke-linejoin:round;stroke-miterlimit:4;stroke-dasharray:none;stroke-dashoffset:0" />
      <circle
         r="7.5595241"
         cy="738.54553"
         cx="-646.70465"
         id="circle4245"
         style="opacity:0.93000034;fill:#000000;fill-opacity:1;stroke:none;stroke-width:0.23043478;stroke-linecap:round;stroke-linejoin:round;stroke-miterlimit:4;stroke-dasharray:none;stroke-dashoffset:0" />
      <circle
         style="opacity:1;fill:#ffffff;fill-opacity:1;stroke:none;stroke-width:0.10369566;stroke-linecap:round;stroke-linejoin:round;stroke-miterlimit:4;stroke-dasharray:none;stroke-dashoffset:0"
         id="circle4247"
         cx="-645.72186"
         cy="734.38782"
         r="3.4017859" />
      <path
         style="opacity:0.93000034;fill:#000000;fill-opacity:1;stroke:none;stroke-width:0;stroke-linecap:round;stroke-linejoin:round;stroke-miterlimit:4;stroke-dasharray:none;stroke-dashoffset:0;paint-order:stroke fill markers"
         d="m -681.27359,781.58777 c 3e-5,-5.12594 2.73476,-9.86247 7.17401,-12.42534 4.43905,-2.56284 9.90816,-2.56284 14.34721,0 4.4391,2.56297 7.17367,7.29949 7.17361,12.42534 -0.0663,1.74208 -2.67293,1.74208 -2.58985,0 -3e-5,-4.20055 -2.24105,-8.08199 -5.87887,-10.18219 -3.63775,-2.10025 -8.11963,-2.10025 -11.75737,0 -3.63768,2.1003 -5.87854,5.98172 -5.8785,10.18219 0.0332,1.74208 -2.62338,1.74208 -2.59024,0 z"
         id="path4249"
         inkscape:connector-curvature="0"
         sodipodi:nodetypes="ccccccccc" />
      <path
         style="fill:none;stroke:#000000;stroke-width:3.10443163;stroke-linecap:butt;stroke-linejoin:miter;stroke-miterlimit:4;stroke-dasharray:none;stroke-opacity:1"
         d="m -727.201,739.33902 0.33409,60.58182 c 0.31787,15.177 4.19925,29.04423 32.63736,27.72164 l 64.19808,-0.4009 c 17.34948,-1.13764 21.64306,-12.02424 22.33215,-38.18776 l 0.03,-49.9706 c 27.8007,-26.21971 9.31954,-54.6062 0.30068,-58.52715 -5.77186,-2.89378 -12.85266,-2.44957 -18.9471,-2.3468 h -88.00509 c -6.08301,0.0836 -8.67748,-0.42224 -13.08067,2.3468 -24.42126,16.55058 -14.94879,45.22558 0.20045,58.78295 z"
         id="path4251"
         inkscape:connector-curvature="0"
         sodipodi:nodetypes="ccccccccccc" />
      <circle
         style="opacity:0.71199999;fill:url(#radialGradient4275);fill-opacity:1;stroke:none;stroke-width:0.27710074;stroke-linecap:round;stroke-linejoin:round;stroke-miterlimit:4;stroke-dasharray:none;stroke-dashoffset:0;filter:url(#filter3789-6-7)"
         id="circle4253"
         cx="-635.74335"
         cy="762.73615"
         r="18.161852" />
      <circle
         r="18.161852"
         cy="762.73615"
         cx="-698.10938"
         id="circle4255"
         style="opacity:0.71199999;fill:url(#radialGradient4277);fill-opacity:1;stroke:none;stroke-width:0.27710074;stroke-linecap:round;stroke-linejoin:round;stroke-miterlimit:4;stroke-dasharray:none;stroke-dashoffset:0;filter:url(#filter3789-6-7)" />
      <g
         id="g4263"
         transform="matrix(0.48905025,0,0,0.48905025,-799.01352,738.58937)"
         style="fill:#dc713e;fill-opacity:1;stroke:#ff5555;stroke-opacity:1;filter:url(#filter4165-4-62)">
        <path
           inkscape:connector-curvature="0"
           id="path4257"
           d="M 192.69059,56.457425 207.39041,41.757601"
           style="fill:#dc713e;fill-opacity:1;stroke:#ff5555;stroke-width:2;stroke-linecap:round;stroke-linejoin:round;stroke-miterlimit:4;stroke-dasharray:none;stroke-opacity:1" />
        <path
           style="fill:#dc713e;fill-opacity:1;stroke:#ff5555;stroke-width:2;stroke-linecap:round;stroke-linejoin:round;stroke-miterlimit:4;stroke-dasharray:none;stroke-opacity:1"
           d="M 198.84853,56.991964 213.54835,42.29214"
           id="path4259"
           inkscape:connector-curvature="0" />
        <path
           inkscape:connector-curvature="0"
           id="path4261"
           d="M 205.263,56.991964 219.96282,42.29214"
           style="fill:#dc713e;fill-opacity:1;stroke:#ff5555;stroke-width:2;stroke-linecap:round;stroke-linejoin:round;stroke-miterlimit:4;stroke-dasharray:none;stroke-opacity:1" />
      </g>
      <g
         style="fill:#dc713e;fill-opacity:1;stroke:#ff5555;stroke-opacity:1;filter:url(#filter4165-4-62)"
         transform="matrix(0.48905025,0,0,0.48905025,-736.64746,738.58937)"
         id="g4271">
        <path
           style="fill:#dc713e;fill-opacity:1;stroke:#ff5555;stroke-width:2;stroke-linecap:round;stroke-linejoin:round;stroke-miterlimit:4;stroke-dasharray:none;stroke-opacity:1"
           d="M 192.69059,56.457425 207.39041,41.757601"
           id="path4265"
           inkscape:connector-curvature="0" />
        <path
           inkscape:connector-curvature="0"
           id="path4267"
           d="M 198.84853,56.991964 213.54835,42.29214"
           style="fill:#dc713e;fill-opacity:1;stroke:#ff5555;stroke-width:2;stroke-linecap:round;stroke-linejoin:round;stroke-miterlimit:4;stroke-dasharray:none;stroke-opacity:1" />
        <path
           style="fill:#dc713e;fill-opacity:1;stroke:#ff5555;stroke-width:2;stroke-linecap:round;stroke-linejoin:round;stroke-miterlimit:4;stroke-dasharray:none;stroke-opacity:1"
           d="M 205.263,56.991964 219.96282,42.29214"
           id="path4269"
           inkscape:connector-curvature="0" />
      </g>
      <g
         transform="translate(1.5875,0.52916667)"
         id="g4354">
        <path
           style="opacity:1;fill:#00d9ff;fill-opacity:1;stroke:#000000;stroke-width:2;stroke-linecap:round;stroke-linejoin:round;stroke-miterlimit:4;stroke-dasharray:none;stroke-dashoffset:0;paint-order:stroke fill markers"
           d="m -646.59649,758.43266 c -1.51327,-3.52581 3.16311,-12.70463 5.24829,-17.9567 5.00573,7.26215 6.6903,18.73151 2.69949,21.11011 -3.06551,1.32391 -6.62383,-0.0879 -7.94775,-3.15341 z"
           id="path1585-5-7"
           inkscape:connector-curvature="0"
           sodipodi:nodetypes="ccccc" />
        <path
           sodipodi:nodetypes="ccccc"
           inkscape:connector-curvature="0"
           id="path2985-8"
           d="m -645.15443,756.34285 c -1.07118,-2.49573 2.239,-8.99293 3.71498,-12.71058 3.54328,5.14048 4.7357,13.25903 1.91082,14.94271 -2.16991,0.93712 -4.68865,-0.0622 -5.62579,-2.23214 z"
           style="opacity:1;fill:#00ffff;fill-opacity:1;stroke:none;stroke-width:0.62031859;stroke-linecap:round;stroke-linejoin:round;stroke-miterlimit:4;stroke-dasharray:none;stroke-dashoffset:0;paint-order:stroke fill markers" />
      </g>
    </g>
  </g>
</svg>
