<?xml version="1.0" encoding="UTF-8" standalone="no"?>
<!-- Created with Inkscape (http://www.inkscape.org/) -->

<svg
   xmlns:dc="http://purl.org/dc/elements/1.1/"
   xmlns:cc="http://creativecommons.org/ns#"
   xmlns:rdf="http://www.w3.org/1999/02/22-rdf-syntax-ns#"
   xmlns:svg="http://www.w3.org/2000/svg"
   xmlns="http://www.w3.org/2000/svg"
   xmlns:xlink="http://www.w3.org/1999/xlink"
   xmlns:sodipodi="http://sodipodi.sourceforge.net/DTD/sodipodi-0.dtd"
   xmlns:inkscape="http://www.inkscape.org/namespaces/inkscape"
   width="210mm"
   height="297mm"
   viewBox="0 0 210 297"
   version="1.1"
   id="svg10155"
   inkscape:version="0.92.3 (2405546, 2018-03-11)"
   sodipodi:docname="Yum-chan_Vol-01_10.svg">
  <defs
     id="defs10149">
    <radialGradient
       inkscape:collect="always"
       xlink:href="#linearGradient3247-6"
       id="radialGradient3555"
       gradientUnits="userSpaceOnUse"
       gradientTransform="matrix(1.619044,1.0253054e-6,-9.4532885e-7,1.4927543,-1085.5829,1099.9357)"
       cx="404.84314"
       cy="320.71384"
       fx="404.84314"
       fy="320.71384"
       r="9.0904226" />
    <linearGradient
       inkscape:collect="always"
       id="linearGradient3247-6">
      <stop
         style="stop-color:#d35f5f;stop-opacity:1;"
         offset="0"
         id="stop3243" />
      <stop
         style="stop-color:#d35f5f;stop-opacity:0;"
         offset="1"
         id="stop3245" />
    </linearGradient>
    <filter
       inkscape:collect="always"
       style="color-interpolation-filters:sRGB"
       id="filter3789-6-7"
       x="-0.012"
       width="1.024"
       y="-0.012"
       height="1.024">
      <feGaussianBlur
         inkscape:collect="always"
         stdDeviation="0.18161852"
         id="feGaussianBlur3791-6-3" />
    </filter>
    <radialGradient
       inkscape:collect="always"
       xlink:href="#linearGradient3247-6"
       id="radialGradient3557"
       gradientUnits="userSpaceOnUse"
       gradientTransform="matrix(1.619044,1.0253054e-6,-9.4532885e-7,1.4927543,-1147.9489,1099.9357)"
       cx="404.84314"
       cy="320.71384"
       fx="404.84314"
       fy="320.71384"
       r="9.0904226" />
    <filter
       inkscape:collect="always"
       style="color-interpolation-filters:sRGB"
       id="filter4165-4-3"
       x="-0.018703243"
       width="1.0374064"
       y="-0.033482142"
       height="1.0669643">
      <feGaussianBlur
         inkscape:collect="always"
         stdDeviation="0.21253296"
         id="feGaussianBlur4167-9-6" />
    </filter>
  </defs>
  <sodipodi:namedview
     id="base"
     pagecolor="#ffffff"
     bordercolor="#666666"
     borderopacity="1.0"
     inkscape:pageopacity="0.0"
     inkscape:pageshadow="2"
     inkscape:zoom="0.35"
     inkscape:cx="-261.42857"
     inkscape:cy="560"
     inkscape:document-units="mm"
     inkscape:current-layer="layer1"
     showgrid="false"
     inkscape:window-width="1366"
     inkscape:window-height="712"
     inkscape:window-x="0"
     inkscape:window-y="0"
     inkscape:window-maximized="1" />
  <metadata
     id="metadata10152">
    <rdf:RDF>
      <cc:Work
         rdf:about="">
        <dc:format>image/svg+xml</dc:format>
        <dc:type
           rdf:resource="http://purl.org/dc/dcmitype/StillImage" />
        <dc:title></dc:title>
      </cc:Work>
    </rdf:RDF>
  </metadata>
  <g
     inkscape:label="Layer 1"
     inkscape:groupmode="layer"
     id="layer1">
    <g
       id="g7325"
       transform="translate(566.30722,-1419.9677)"
       inkscape:export-filename="/home/dito/Pictures/DitoKP's Sticker Packs/Yum-chan_-_The_Kawaii_Bread/Yum-Chan_-_The_Kawaii_Bread_Stickers_Source/Yum-chan_Telegram/Yum-chan_Vol-01_10.png"
       inkscape:export-xdpi="164"
       inkscape:export-ydpi="164">
      <path
         inkscape:connector-curvature="0"
         id="path3513"
         d="m -504.80869,1481.8492 c -24.761,0 -44.69495,19.9339 -44.69495,44.6949 0,14.3619 6.70692,27.0989 17.17157,35.265 v 68.8108 c 0,13.5544 10.91236,24.4662 24.4667,24.4662 h 93.1163 c 13.55434,0 24.46671,-10.9118 24.46671,-24.4662 v -68.8108 c 10.46464,-8.1661 17.17156,-20.9031 17.17156,-35.265 0,-24.761 -19.93395,-44.6949 -44.69493,-44.6949 z"
         style="opacity:1;fill:#ffffff;fill-opacity:1;stroke:none;stroke-width:0.22821258;stroke-linecap:round;stroke-linejoin:round;stroke-miterlimit:4;stroke-dasharray:none;stroke-dashoffset:0" />
      <path
         inkscape:connector-curvature="0"
         style="opacity:1;fill:#ac7d35;fill-opacity:1;stroke:none;stroke-width:2;stroke-linecap:round;stroke-linejoin:round;stroke-miterlimit:4;stroke-dasharray:none;stroke-dashoffset:0"
         d="m -508.68475,1504.7544 c -14.72792,0 -26.58442,11.857 -26.58442,26.5849 0,10.7675 6.33793,19.9986 15.50138,24.1856 v 65.3495 c 0,11.8454 9.53625,21.3817 21.38164,21.3817 h 73.23171 c 11.84538,0 21.38164,-9.5363 21.38164,-21.3817 v -65.3495 c 9.16349,-4.1869 15.50189,-13.4181 15.50189,-24.1856 0,-14.7279 -11.85702,-26.5849 -26.58494,-26.5849 z"
         id="path3515" />
      <path
         id="path3517"
         d="m -508.68475,1494.7002 c -14.72792,0 -26.58442,11.857 -26.58442,26.585 0,10.7674 6.33793,19.9986 15.50138,24.1856 v 65.3495 c 0,11.8453 9.53625,21.3816 21.38164,21.3816 h 73.23171 c 11.84538,0 21.38164,-9.5363 21.38164,-21.3816 v -65.3495 c 9.16349,-4.187 15.50189,-13.4182 15.50189,-24.1856 0,-14.728 -11.85702,-26.585 -26.58494,-26.585 z"
         style="opacity:1;fill:#daae64;fill-opacity:1;stroke:#000000;stroke-width:1;stroke-linecap:round;stroke-linejoin:round;stroke-miterlimit:4;stroke-dasharray:none;stroke-dashoffset:0;stroke-opacity:1"
         inkscape:connector-curvature="0" />
      <path
         id="path3519"
         d="m -500.48835,1504.9001 c -10.17246,0 -18.36167,8.1892 -18.36167,18.3617 0,7.9871 5.04977,14.75 12.14293,17.2878 v 62.1647 c 0,10.4291 8.39611,18.8247 18.82521,18.8247 h 53.14973 c 10.42909,0 18.82469,-8.3956 18.82469,-18.8247 v -62.1647 c 7.09337,-2.5377 12.14292,-9.3006 12.14292,-17.2878 0,-10.1725 -8.18921,-18.3617 -18.36167,-18.3617 z"
         style="opacity:1;fill:#efd89f;fill-opacity:1;stroke:none;stroke-width:1;stroke-linecap:round;stroke-linejoin:round;stroke-miterlimit:4;stroke-dasharray:none;stroke-dashoffset:0"
         inkscape:connector-curvature="0" />
      <path
         sodipodi:nodetypes="ccccccccc"
         inkscape:connector-curvature="0"
         id="path3529"
         d="m -475.65454,1584.4939 c 3e-5,5.1259 2.73476,9.8625 7.17401,12.4253 4.43905,2.5629 9.90816,2.5629 14.34721,0 4.4391,-2.5629 7.17367,-7.2995 7.17361,-12.4253 -0.0663,-1.7421 -2.67293,-1.7421 -2.58985,0 -3e-5,4.2005 -2.24105,8.082 -5.87887,10.1822 -3.63775,2.1002 -8.11963,2.1002 -11.75737,0 -3.63768,-2.1003 -5.87854,-5.9817 -5.8785,-10.1822 0.0332,-1.7421 -2.62338,-1.7421 -2.59024,0 z"
         style="opacity:0.93000034;fill:#000000;fill-opacity:1;stroke:none;stroke-width:0;stroke-linecap:round;stroke-linejoin:round;stroke-miterlimit:4;stroke-dasharray:none;stroke-dashoffset:0;paint-order:stroke fill markers" />
      <path
         sodipodi:nodetypes="ccccccccccc"
         inkscape:connector-curvature="0"
         id="path3531"
         d="m -521.58195,1555.2861 0.33409,60.5818 c 0.31787,15.177 4.19925,29.0442 32.63736,27.7216 l 64.19808,-0.4009 c 17.34948,-1.1376 21.64306,-12.0242 22.33215,-38.1877 l 0.03,-49.9706 c 27.8007,-26.2198 9.31954,-54.6062 0.30068,-58.5272 -5.77186,-2.8938 -12.85266,-2.4496 -18.9471,-2.3468 h -88.00509 c -6.08301,0.084 -8.67748,-0.4222 -13.08067,2.3468 -24.42126,16.5506 -14.94879,45.2256 0.20045,58.783 z"
         style="fill:none;stroke:#000000;stroke-width:3.10443163;stroke-linecap:butt;stroke-linejoin:miter;stroke-miterlimit:4;stroke-dasharray:none;stroke-opacity:1" />
      <circle
         r="18.161852"
         cy="1578.6831"
         cx="-430.12427"
         id="circle3533"
         style="opacity:0.71199999;fill:url(#radialGradient3555);fill-opacity:1;stroke:none;stroke-width:0.27710074;stroke-linecap:round;stroke-linejoin:round;stroke-miterlimit:4;stroke-dasharray:none;stroke-dashoffset:0;filter:url(#filter3789-6-7)" />
      <circle
         style="opacity:0.71199999;fill:url(#radialGradient3557);fill-opacity:1;stroke:none;stroke-width:0.27710074;stroke-linecap:round;stroke-linejoin:round;stroke-miterlimit:4;stroke-dasharray:none;stroke-dashoffset:0;filter:url(#filter3789-6-7)"
         id="circle3535"
         cx="-492.49033"
         cy="1578.6831"
         r="18.161852" />
      <g
         id="g3543"
         transform="matrix(0.48905025,0,0,0.48905025,-593.39445,1554.5364)"
         style="fill:#dc713e;fill-opacity:1;stroke:#ff5555;stroke-opacity:1;filter:url(#filter4165-4-3)">
        <path
           inkscape:connector-curvature="0"
           id="path3537"
           d="M 192.69059,56.457425 207.39041,41.757601"
           style="fill:#dc713e;fill-opacity:1;stroke:#ff5555;stroke-width:2;stroke-linecap:round;stroke-linejoin:round;stroke-miterlimit:4;stroke-dasharray:none;stroke-opacity:1" />
        <path
           style="fill:#dc713e;fill-opacity:1;stroke:#ff5555;stroke-width:2;stroke-linecap:round;stroke-linejoin:round;stroke-miterlimit:4;stroke-dasharray:none;stroke-opacity:1"
           d="M 198.84853,56.991964 213.54835,42.29214"
           id="path3539"
           inkscape:connector-curvature="0" />
        <path
           inkscape:connector-curvature="0"
           id="path3541"
           d="M 205.263,56.991964 219.96282,42.29214"
           style="fill:#dc713e;fill-opacity:1;stroke:#ff5555;stroke-width:2;stroke-linecap:round;stroke-linejoin:round;stroke-miterlimit:4;stroke-dasharray:none;stroke-opacity:1" />
      </g>
      <g
         style="fill:#dc713e;fill-opacity:1;stroke:#ff5555;stroke-opacity:1;filter:url(#filter4165-4-3)"
         transform="matrix(0.48905025,0,0,0.48905025,-531.02839,1554.5364)"
         id="g3551">
        <path
           style="fill:#dc713e;fill-opacity:1;stroke:#ff5555;stroke-width:2;stroke-linecap:round;stroke-linejoin:round;stroke-miterlimit:4;stroke-dasharray:none;stroke-opacity:1"
           d="M 192.69059,56.457425 207.39041,41.757601"
           id="path3545"
           inkscape:connector-curvature="0" />
        <path
           inkscape:connector-curvature="0"
           id="path3547"
           d="M 198.84853,56.991964 213.54835,42.29214"
           style="fill:#dc713e;fill-opacity:1;stroke:#ff5555;stroke-width:2;stroke-linecap:round;stroke-linejoin:round;stroke-miterlimit:4;stroke-dasharray:none;stroke-opacity:1" />
        <path
           style="fill:#dc713e;fill-opacity:1;stroke:#ff5555;stroke-width:2;stroke-linecap:round;stroke-linejoin:round;stroke-miterlimit:4;stroke-dasharray:none;stroke-opacity:1"
           d="M 205.263,56.991964 219.96282,42.29214"
           id="path3549"
           inkscape:connector-curvature="0" />
      </g>
      <g
         transform="translate(-4.9998864e-6,5.2916667)"
         id="g3583">
        <path
           style="opacity:1;fill:#000000;fill-opacity:1;stroke:#000000;stroke-width:0.29132915;stroke-linecap:round;stroke-linejoin:round;stroke-miterlimit:4;stroke-dasharray:none;stroke-dashoffset:0;paint-order:stroke fill markers"
           d="m -495.17483,1557.1735 1.5149,1.5149 11.34239,-11.3424 11.41037,11.4104 1.58296,-1.5829 -12.92535,-12.9254 z"
           id="path3486"
           inkscape:connector-curvature="0" />
        <path
           inkscape:connector-curvature="0"
           id="path3488"
           d="m -453.29034,1557.1735 1.51489,1.5149 11.3424,-11.3424 11.41037,11.4104 1.58296,-1.5829 -12.92535,-12.9254 z"
           style="opacity:1;fill:#000000;fill-opacity:1;stroke:#000000;stroke-width:0.29132915;stroke-linecap:round;stroke-linejoin:round;stroke-miterlimit:4;stroke-dasharray:none;stroke-dashoffset:0;paint-order:stroke fill markers" />
      </g>
    </g>
  </g>
</svg>
