<?xml version="1.0" encoding="UTF-8" standalone="no"?>
<!-- Created with Inkscape (http://www.inkscape.org/) -->

<svg
   xmlns:dc="http://purl.org/dc/elements/1.1/"
   xmlns:cc="http://creativecommons.org/ns#"
   xmlns:rdf="http://www.w3.org/1999/02/22-rdf-syntax-ns#"
   xmlns:svg="http://www.w3.org/2000/svg"
   xmlns="http://www.w3.org/2000/svg"
   xmlns:xlink="http://www.w3.org/1999/xlink"
   xmlns:sodipodi="http://sodipodi.sourceforge.net/DTD/sodipodi-0.dtd"
   xmlns:inkscape="http://www.inkscape.org/namespaces/inkscape"
   width="210mm"
   height="297mm"
   viewBox="0 0 210 297"
   version="1.1"
   id="svg13289"
   inkscape:version="0.92.3 (2405546, 2018-03-11)"
   sodipodi:docname="Yum-chan_Vol-01_14.svg">
  <defs
     id="defs13283">
    <radialGradient
       inkscape:collect="always"
       xlink:href="#linearGradient3247-6"
       id="radialGradient1359"
       gradientUnits="userSpaceOnUse"
       gradientTransform="matrix(1.619044,1.0253054e-6,-9.4532885e-7,1.4927543,-886.01142,501.66403)"
       cx="404.84314"
       cy="320.71384"
       fx="404.84314"
       fy="320.71384"
       r="9.0904226" />
    <linearGradient
       inkscape:collect="always"
       id="linearGradient3247-6">
      <stop
         style="stop-color:#d35f5f;stop-opacity:1;"
         offset="0"
         id="stop3243" />
      <stop
         style="stop-color:#d35f5f;stop-opacity:0;"
         offset="1"
         id="stop3245" />
    </linearGradient>
    <filter
       inkscape:collect="always"
       style="color-interpolation-filters:sRGB"
       id="filter3789-6-7"
       x="-0.012"
       width="1.024"
       y="-0.012"
       height="1.024">
      <feGaussianBlur
         inkscape:collect="always"
         stdDeviation="0.18161852"
         id="feGaussianBlur3791-6-3" />
    </filter>
    <radialGradient
       inkscape:collect="always"
       xlink:href="#linearGradient3247-6"
       id="radialGradient1361"
       gradientUnits="userSpaceOnUse"
       gradientTransform="matrix(1.619044,1.0253054e-6,-9.4532885e-7,1.4927543,-948.37749,501.66403)"
       cx="404.84314"
       cy="320.71384"
       fx="404.84314"
       fy="320.71384"
       r="9.0904226" />
    <filter
       inkscape:collect="always"
       style="color-interpolation-filters:sRGB"
       id="filter4165-4-4"
       x="-0.018703243"
       width="1.0374064"
       y="-0.033482142"
       height="1.0669643">
      <feGaussianBlur
         inkscape:collect="always"
         stdDeviation="0.21253296"
         id="feGaussianBlur4167-9-7" />
    </filter>
  </defs>
  <sodipodi:namedview
     id="base"
     pagecolor="#ffffff"
     bordercolor="#666666"
     borderopacity="1.0"
     inkscape:pageopacity="0.0"
     inkscape:pageshadow="2"
     inkscape:zoom="0.35"
     inkscape:cx="-261.42857"
     inkscape:cy="560"
     inkscape:document-units="mm"
     inkscape:current-layer="layer1"
     showgrid="false"
     inkscape:window-width="1366"
     inkscape:window-height="712"
     inkscape:window-x="0"
     inkscape:window-y="0"
     inkscape:window-maximized="1" />
  <metadata
     id="metadata13286">
    <rdf:RDF>
      <cc:Work
         rdf:about="">
        <dc:format>image/svg+xml</dc:format>
        <dc:type
           rdf:resource="http://purl.org/dc/dcmitype/StillImage" />
        <dc:title></dc:title>
      </cc:Work>
    </rdf:RDF>
  </metadata>
  <g
     inkscape:label="Layer 1"
     inkscape:groupmode="layer"
     id="layer1">
    <g
       id="g12265"
       transform="translate(3054.1784,-1167.1707)"
       inkscape:export-filename="/home/dito/Pictures/DitoKP's Sticker Packs/Yum-chan_-_The_Kawaii_Bread/Yum-Chan_-_The_Kawaii_Bread_Stickers_Source/Yum-chan_Telegram/Yum-chan_Vol-01_14.png"
       inkscape:export-xdpi="164"
       inkscape:export-ydpi="164">
      <g
         transform="translate(-2689.108,364.85064)"
         id="g2594">
        <path
           inkscape:connector-curvature="0"
           id="path1295"
           d="m -305.23726,883.57745 c -24.761,0 -44.69495,19.93394 -44.69495,44.69495 0,14.36184 6.70692,27.09886 17.17157,35.26501 v 68.81079 c 0,13.5544 10.91236,24.4662 24.4667,24.4662 h 93.1163 c 13.55434,0 24.46671,-10.9119 24.46671,-24.4662 v -68.81079 c 10.46464,-8.16615 17.17156,-20.90317 17.17156,-35.26501 0,-24.76101 -19.93395,-44.69495 -44.69493,-44.69495 z"
           style="opacity:1;fill:#ffffff;fill-opacity:1;stroke:none;stroke-width:0.22821258;stroke-linecap:round;stroke-linejoin:round;stroke-miterlimit:4;stroke-dasharray:none;stroke-dashoffset:0" />
        <path
           inkscape:connector-curvature="0"
           style="opacity:1;fill:#ac7d35;fill-opacity:1;stroke:none;stroke-width:2;stroke-linecap:round;stroke-linejoin:round;stroke-miterlimit:4;stroke-dasharray:none;stroke-dashoffset:0"
           d="m -309.11332,906.48267 c -14.72792,0 -26.58442,11.85702 -26.58442,26.58495 0,10.76742 6.33793,19.99861 15.50138,24.1856 v 65.34948 c 0,11.8454 9.53625,21.3817 21.38164,21.3817 h 73.23171 c 11.84538,0 21.38164,-9.5363 21.38164,-21.3817 v -65.34948 c 9.16349,-4.18697 15.50189,-13.41815 15.50189,-24.1856 0,-14.72793 -11.85702,-26.58495 -26.58494,-26.58495 z"
           id="path1297" />
        <path
           id="path1299"
           d="m -309.11332,896.4285 c -14.72792,0 -26.58442,11.85702 -26.58442,26.58495 0,10.76741 6.33793,19.99861 15.50138,24.1856 v 65.34945 c 0,11.8454 9.53625,21.3817 21.38164,21.3817 h 73.23171 c 11.84538,0 21.38164,-9.5363 21.38164,-21.3817 v -65.34945 c 9.16349,-4.18697 15.50189,-13.41815 15.50189,-24.1856 0,-14.72793 -11.85702,-26.58495 -26.58494,-26.58495 z"
           style="opacity:1;fill:#daae64;fill-opacity:1;stroke:#000000;stroke-width:1;stroke-linecap:round;stroke-linejoin:round;stroke-miterlimit:4;stroke-dasharray:none;stroke-dashoffset:0;stroke-opacity:1"
           inkscape:connector-curvature="0" />
        <path
           id="path1301"
           d="m -300.91692,906.6284 c -10.17246,0 -18.36167,8.18921 -18.36167,18.36167 0,7.98707 5.04977,14.74997 12.14293,17.28783 v 62.1647 c 0,10.4291 8.39611,18.8247 18.82521,18.8247 h 53.14973 c 10.42909,0 18.82469,-8.3956 18.82469,-18.8247 v -62.1647 c 7.09337,-2.53775 12.14292,-9.3006 12.14292,-17.28783 0,-10.17246 -8.18921,-18.36167 -18.36167,-18.36167 z"
           style="opacity:1;fill:#efd89f;fill-opacity:1;stroke:none;stroke-width:1;stroke-linecap:round;stroke-linejoin:round;stroke-miterlimit:4;stroke-dasharray:none;stroke-dashoffset:0"
           inkscape:connector-curvature="0" />
        <circle
           r="7.5595241"
           cy="956.22083"
           cx="-281.95761"
           id="circle1303"
           style="opacity:0.93000034;fill:#000000;fill-opacity:1;stroke:none;stroke-width:0.23043478;stroke-linecap:round;stroke-linejoin:round;stroke-miterlimit:4;stroke-dasharray:none;stroke-dashoffset:0" />
        <circle
           style="opacity:1;fill:#ffffff;fill-opacity:1;stroke:none;stroke-width:0.10369566;stroke-linecap:round;stroke-linejoin:round;stroke-miterlimit:4;stroke-dasharray:none;stroke-dashoffset:0"
           id="circle1305"
           cx="-280.97488"
           cy="952.06311"
           r="3.4017859" />
        <circle
           style="opacity:0.93000034;fill:#000000;fill-opacity:1;stroke:none;stroke-width:0.23043478;stroke-linecap:round;stroke-linejoin:round;stroke-miterlimit:4;stroke-dasharray:none;stroke-dashoffset:0"
           id="circle1307"
           cx="-241.51416"
           cy="956.22083"
           r="7.5595241" />
        <circle
           r="3.4017859"
           cy="952.06311"
           cx="-240.5314"
           id="circle1309"
           style="opacity:1;fill:#ffffff;fill-opacity:1;stroke:none;stroke-width:0.10369566;stroke-linecap:round;stroke-linejoin:round;stroke-miterlimit:4;stroke-dasharray:none;stroke-dashoffset:0" />
        <path
           sodipodi:nodetypes="ccccccccccc"
           inkscape:connector-curvature="0"
           id="path1311"
           d="m -322.01052,957.01434 0.33409,60.58186 c 0.31787,15.177 4.19925,29.0442 32.63736,27.7216 l 64.19808,-0.4009 c 17.34948,-1.1376 21.64306,-12.0242 22.33215,-38.1878 l 0.03,-49.97056 c 27.8007,-26.21971 9.31954,-54.6062 0.30068,-58.52715 -5.77186,-2.89378 -12.85266,-2.44957 -18.9471,-2.3468 h -88.00509 c -6.08301,0.0836 -8.67748,-0.42224 -13.08067,2.3468 -24.42126,16.55058 -14.94879,45.22558 0.20045,58.78295 z"
           style="fill:none;stroke:#000000;stroke-width:3.10443163;stroke-linecap:butt;stroke-linejoin:miter;stroke-miterlimit:4;stroke-dasharray:none;stroke-opacity:1" />
        <circle
           r="18.161852"
           cy="980.41144"
           cx="-230.55286"
           id="circle1313"
           style="opacity:0.71199999;fill:url(#radialGradient1359);fill-opacity:1;stroke:none;stroke-width:0.27710074;stroke-linecap:round;stroke-linejoin:round;stroke-miterlimit:4;stroke-dasharray:none;stroke-dashoffset:0;filter:url(#filter3789-6-7)" />
        <circle
           style="opacity:0.71199999;fill:url(#radialGradient1361);fill-opacity:1;stroke:none;stroke-width:0.27710074;stroke-linecap:round;stroke-linejoin:round;stroke-miterlimit:4;stroke-dasharray:none;stroke-dashoffset:0;filter:url(#filter3789-6-7)"
           id="circle1323"
           cx="-292.91891"
           cy="980.41144"
           r="18.161852" />
        <ellipse
           cy="994.77441"
           cx="-261.73584"
           id="ellipse1333"
           style="opacity:0.93000034;fill:#000000;fill-opacity:1;stroke:none;stroke-width:0.30689812;stroke-linecap:round;stroke-linejoin:round;stroke-miterlimit:4;stroke-dasharray:none;stroke-dashoffset:0"
           rx="8.1264877"
           ry="12.473214" />
        <path
           style="opacity:0.71199999;fill:#b61e1e;fill-opacity:1;stroke:none;stroke-width:0.30689812;stroke-linecap:round;stroke-linejoin:round;stroke-miterlimit:4;stroke-dasharray:none;stroke-dashoffset:0"
           d="m -261.73596,1000.4439 a 8.1264875,12.473214 0 0 0 -5.56657,3.3972 8.1264875,12.473214 0 0 0 5.56657,3.4065 8.1264875,12.473214 0 0 0 5.56659,-3.3967 8.1264875,12.473214 0 0 0 -5.56659,-3.407 z"
           id="path1335"
           inkscape:connector-curvature="0" />
        <g
           id="g973-6-6-6-4-1-8"
           transform="matrix(0.48905025,0,0,0.48905025,-393.82304,956.26469)"
           style="fill:#dc713e;fill-opacity:1;stroke:#ff5555;stroke-opacity:1;filter:url(#filter4165-4-4)">
          <path
             inkscape:connector-curvature="0"
             id="path964-7-0-3-3-0-4"
             d="M 192.69059,56.457425 207.39041,41.757601"
             style="fill:#dc713e;fill-opacity:1;stroke:#ff5555;stroke-width:2;stroke-linecap:round;stroke-linejoin:round;stroke-miterlimit:4;stroke-dasharray:none;stroke-opacity:1" />
          <path
             style="fill:#dc713e;fill-opacity:1;stroke:#ff5555;stroke-width:2;stroke-linecap:round;stroke-linejoin:round;stroke-miterlimit:4;stroke-dasharray:none;stroke-opacity:1"
             d="M 198.84853,56.991964 213.54835,42.29214"
             id="path966-5-6-2-0-6-5"
             inkscape:connector-curvature="0" />
          <path
             inkscape:connector-curvature="0"
             id="path968-3-2-0-7-1-03"
             d="M 205.263,56.991964 219.96282,42.29214"
             style="fill:#dc713e;fill-opacity:1;stroke:#ff5555;stroke-width:2;stroke-linecap:round;stroke-linejoin:round;stroke-miterlimit:4;stroke-dasharray:none;stroke-opacity:1" />
        </g>
        <g
           style="fill:#dc713e;fill-opacity:1;stroke:#ff5555;stroke-opacity:1;filter:url(#filter4165-4-4)"
           transform="matrix(0.48905025,0,0,0.48905025,-331.45698,956.26469)"
           id="g2571">
          <path
             style="fill:#dc713e;fill-opacity:1;stroke:#ff5555;stroke-width:2;stroke-linecap:round;stroke-linejoin:round;stroke-miterlimit:4;stroke-dasharray:none;stroke-opacity:1"
             d="M 192.69059,56.457425 207.39041,41.757601"
             id="path2565"
             inkscape:connector-curvature="0" />
          <path
             inkscape:connector-curvature="0"
             id="path2567"
             d="M 198.84853,56.991964 213.54835,42.29214"
             style="fill:#dc713e;fill-opacity:1;stroke:#ff5555;stroke-width:2;stroke-linecap:round;stroke-linejoin:round;stroke-miterlimit:4;stroke-dasharray:none;stroke-opacity:1" />
          <path
             style="fill:#dc713e;fill-opacity:1;stroke:#ff5555;stroke-width:2;stroke-linecap:round;stroke-linejoin:round;stroke-miterlimit:4;stroke-dasharray:none;stroke-opacity:1"
             d="M 205.263,56.991964 219.96282,42.29214"
             id="path2569"
             inkscape:connector-curvature="0" />
        </g>
      </g>
      <g
         id="g1343"
         transform="matrix(0.83998025,-0.15093808,0.15093808,0.83998025,-2830.757,662.41113)">
        <g
           transform="matrix(1.0660198,0.6154668,-0.6154668,1.0660198,382.80979,63.472459)"
           id="g1404"
           style="fill:#00ffff;stroke:#000000;stroke-width:2.42216611;stroke-miterlimit:4;stroke-dasharray:none">
          <g
             id="g1402"
             transform="translate(53.08444)"
             style="fill:#00ffff;stroke:#000000;stroke-width:2.42216611;stroke-miterlimit:4;stroke-dasharray:none">
            <path
               style="opacity:1;fill:#00ffff;fill-opacity:1;stroke:#000000;stroke-width:2.42216611;stroke-linecap:round;stroke-linejoin:round;stroke-miterlimit:4;stroke-dasharray:none;stroke-dashoffset:0;paint-order:stroke fill markers"
               d="m -214.6054,619.16548 c -4.70363,-0.0196 -9.70027,1.94168 -12.27032,3.2008 -2.97842,1.34806 -4.15135,4.50042 -2.63009,7.06807 l 0.071,0.12007 c 1.52126,2.56764 5.14375,3.54936 8.12217,2.20131 l 0.9799,-0.44331 0.002,-10e-4 c 1.95507,-0.82976 4.05535,-1.26335 6.17917,-1.27567 8.86672,2e-5 16.05461,7.18791 16.05463,16.05462 -0.002,8.71434 -6.95066,15.81515 -15.62672,16.04361 -0.13769,-0.0116 -0.27625,-0.0196 -0.41653,-0.0196 -3.16903,0 -5.72029,3.00794 -5.72029,6.7443 v 29.03182 c 0,3.73637 2.55126,6.7443 5.72029,6.7443 3.16903,0 5.72029,-3.00793 5.72029,-6.7443 v -25.50319 c 12.11504,-2.62762 21.18201,-13.40631 21.18495,-26.2969 1e-5,-14.86564 -12.05098,-26.91663 -26.91662,-26.91662 -0.15103,-0.005 -0.30243,-0.008 -0.45416,-0.008 z"
               id="path1398"
               inkscape:connector-curvature="0" />
            <circle
               style="opacity:1;fill:#00ffff;fill-opacity:1;stroke:#000000;stroke-width:2.42216611;stroke-linecap:round;stroke-linejoin:round;stroke-miterlimit:4;stroke-dasharray:none;stroke-dashoffset:0;paint-order:stroke fill markers"
               id="circle1400"
               cx="-214.15121"
               cy="714.09363"
               r="5.724813" />
          </g>
        </g>
      </g>
    </g>
  </g>
</svg>
